<?xml version="1.0" standalone="no"?>
<!DOCTYPE svg PUBLIC "-//W3C//DTD SVG 1.1//EN" "http://www.w3.org/Graphics/SVG/1.1/DTD/svg11.dtd" >
<svg xmlns="http://www.w3.org/2000/svg">
<metadata></metadata>
<defs>
<font id="museo_sans_cyrl100_italic" horiz-adv-x="1146" >
<font-face units-per-em="2048" ascent="1536" descent="-512" />
<missing-glyph horiz-adv-x="512" />
<glyph horiz-adv-x="0" />
<glyph horiz-adv-x="682" />
<glyph unicode=" "  horiz-adv-x="512" />
<glyph unicode="&#x09;" horiz-adv-x="512" />
<glyph unicode="&#xa0;" horiz-adv-x="512" />
<glyph unicode="!" horiz-adv-x="512" d="M78 0l26 125h121l-26 -125h-121zM164 358l211 1076h88l-211 -1076h-88z" />
<glyph unicode="&#x22;" horiz-adv-x="643" d="M276 1143l60 309h88l-59 -309h-89zM489 1143l60 309h88l-59 -309h-89z" />
<glyph unicode="#" horiz-adv-x="1490" d="M63 408l31 81h309l168 453h-309l31 82h309l152 410h90l-152 -410h387l152 410h90l-152 -410h304l-31 -82h-303l-168 -453h303l-31 -81h-303l-152 -408h-90l152 408h-387l-152 -408h-90l152 408h-310zM494 489h387l168 453h-387z" />
<glyph unicode="$" d="M59 154l64 63q135 -156 350 -156q104 0 192 37t143.5 111t55.5 172q0 59 -20.5 106.5t-55.5 81t-80.5 62t-95.5 52.5t-100 49t-95.5 55.5t-80.5 67.5t-55.5 90t-20.5 118q0 86 37 159t100 122t142.5 78t167.5 34l38 193h89l-37 -193q187 -17 305 -135l-58 -68 q-49 56 -131.5 87.5t-164.5 31.5q-57 0 -113 -12.5t-107 -38t-90 -61t-62.5 -85.5t-23.5 -108q0 -68 33.5 -120.5t86.5 -88t117.5 -67t129 -66t117.5 -76.5t86.5 -108.5t33.5 -151.5q0 -175 -125.5 -289t-322.5 -123l-37 -190h-88l37 190q-99 8 -198.5 54.5t-162.5 122.5z " />
<glyph unicode="%" horiz-adv-x="1435" d="M8 0l1356 1434h117l-1358 -1434h-115zM236 1159q0 113 96 206t217 93q105 0 168 -64t63 -167q0 -118 -95.5 -210.5t-215.5 -92.5q-107 0 -170 64t-63 171zM324 1153q0 -64 41 -105.5t108 -41.5q87 0 153 66.5t66 156.5q0 64 -41 105.5t-106 41.5q-86 0 -153.5 -67.5 t-67.5 -155.5zM698 211q0 113 96.5 206t217.5 93q105 0 168 -64t63 -167q0 -118 -95.5 -211t-215.5 -93q-107 0 -170.5 64.5t-63.5 171.5zM786 205q0 -64 41.5 -106t108.5 -42q87 0 153 67t66 157q0 64 -41 105.5t-106 41.5q-86 0 -154 -67.5t-68 -155.5z" />
<glyph unicode="&#x26;" horiz-adv-x="1341" d="M84 328q0 151 98 279.5t256 168.5v4q-6 2 -16.5 6.5t-37 24.5t-46.5 46t-36.5 74t-16.5 107q0 177 133.5 298.5t341.5 121.5q80 0 166 -22l-41 -76q-78 16 -127 16q-157 0 -268 -94t-111 -244q0 -34 6 -62.5t25 -59.5t50.5 -52t87.5 -35t132 -14h334l41 209h88l-41 -209 h198l-16 -82h-199l-45 -229q-104 -529 -542 -529q-194 0 -304 97t-110 256zM176 328q0 -118 85 -192.5t237 -74.5q367 0 454 443l45 229h-329q-99 0 -187 -26.5t-156.5 -76t-108.5 -127.5t-40 -175z" />
<glyph unicode="'" horiz-adv-x="430" d="M276 1143l60 309h88l-59 -309h-89z" />
<glyph unicode="(" horiz-adv-x="540" d="M109 344q0 627 411 1141h94q-421 -536 -421 -1143q0 -278 96 -537h-86q-94 257 -94 539z" />
<glyph unicode=")" horiz-adv-x="542" d="M-55 -195q422 538 422 1143q0 275 -97 537h86q95 -260 95 -539q0 -626 -412 -1141h-94z" />
<glyph unicode="*" horiz-adv-x="1011" d="M221 1124l43 84l295 -110l55 336h97l-76 -336l342 108l12 -86l-344 -100l148 -266l-76 -52l-142 277l-245 -274l-68 53l256 270z" />
<glyph unicode="+" d="M33 539l14 82h485l107 538h88l-106 -538h483l-14 -82h-484l-106 -539h-88l106 539h-485z" />
<glyph unicode="," horiz-adv-x="518" d="M-43 -193l172 318h113l-195 -318h-90z" />
<glyph unicode="-" horiz-adv-x="884" d="M147 539l15 82h565l-14 -82h-566z" />
<glyph unicode="." horiz-adv-x="444" d="M45 0l25 129h125l-25 -129h-125z" />
<glyph unicode="/" horiz-adv-x="833" d="M-25 -86l830 1602h96l-829 -1602h-97z" />
<glyph unicode="0" horiz-adv-x="1257" d="M135 428q0 82 10 173t33.5 192t58 195t87 180.5t117 150t152 101.5t187.5 38q385 0 385 -457q0 -83 -10 -173.5t-33 -191t-57 -194t-87 -179.5t-117 -149.5t-152 -101t-189 -37.5q-200 0 -292.5 120t-92.5 333zM225 424q0 -363 297 -363q87 0 162 35t130 93t100 137.5 t74 165.5t48.5 178.5t28 175.5t8.5 158q0 176 -69 272t-226 96q-95 0 -177 -43t-141 -117t-105.5 -168.5t-74 -202t-41.5 -212.5t-14 -205z" />
<glyph unicode="1" horiz-adv-x="913" d="M6 0l14 82h326l225 1157l17 72h-4q-21 -27 -95 -88l-196 -166l-53 65l370 312h88l-264 -1352h318l-17 -82h-729z" />
<glyph unicode="2" horiz-adv-x="1132" d="M20 0q2 61 18.5 117.5t40 102t65.5 92.5t78.5 80.5t95.5 75.5t100.5 68.5t107.5 67.5q189 116 250 162q166 124 203 254q12 43 12 90q0 123 -78.5 192.5t-203.5 69.5q-110 0 -214 -55.5t-176 -147.5l-63 54q77 104 201 169.5t258 65.5q165 0 266.5 -93t101.5 -249 q0 -78 -30.5 -150t-68.5 -122t-115.5 -111t-127 -93.5t-147.5 -92.5q-21 -13 -31 -19q-54 -33 -87.5 -54t-81.5 -54t-78.5 -58.5t-66.5 -60.5t-58.5 -67t-41 -71.5t-26.5 -80.5h784l-16 -82h-871z" />
<glyph unicode="3" horiz-adv-x="1136" d="M20 174l70 59q30 -35 58.5 -60t73.5 -53.5t104.5 -43.5t130.5 -15q102 0 200 53.5t163 152t65 214.5q0 132 -93.5 203.5t-234.5 71.5h-106l-13 61l494 469l76 66v4q-39 -4 -111 -4h-580l17 82h821l-12 -62l-568 -534q48 0 98 -9t106 -34t98.5 -63t71 -103t28.5 -148 q0 -133 -75 -251t-196.5 -186.5t-252.5 -68.5q-129 0 -243.5 51.5t-189.5 147.5z" />
<glyph unicode="4" horiz-adv-x="1210" d="M47 410l12 61l920 963h92l-184 -942h213l-17 -82h-213l-79 -410h-89l80 410h-735zM195 492h604l131 671q4 25 12 57.5t14 51.5l5 20h-5q-45 -51 -90 -98l-671 -700v-2z" />
<glyph unicode="5" horiz-adv-x="1132" d="M39 182l76 51q111 -172 319 -172q120 0 227.5 59.5t172.5 162.5t65 221q0 142 -92 226.5t-242 84.5q-75 0 -148.5 -21.5t-110.5 -43.5l-36 -21l-63 23l215 682h668l-17 -82h-588l-133 -424l-30 -88h4q11 7 31.5 17t86.5 27t134 17q185 0 299 -110t114 -285 q0 -143 -77 -265.5t-206.5 -194t-277.5 -71.5q-121 0 -226 54t-165 153z" />
<glyph unicode="6" horiz-adv-x="1196" d="M125 483q0 72 15.5 157.5t48 179.5t78.5 184.5t111 173t141.5 144.5t174.5 99t205 37q141 0 258 -57l-53 -76q-31 19 -89.5 33t-115.5 14q-120 0 -229.5 -58t-190.5 -154t-139 -210t-90 -237h4q75 91 189.5 143.5t234.5 52.5q173 0 277 -97.5t104 -266.5 q0 -103 -37.5 -204.5t-103 -183t-166 -132t-215.5 -50.5q-133 0 -227 66.5t-139.5 179.5t-45.5 262zM217 453q0 -71 20 -139t57 -125.5t98.5 -92.5t137.5 -35q182 0 309.5 140.5t127.5 343.5q0 130 -79 204t-216 74q-53 0 -114.5 -16.5t-121.5 -49.5t-109 -77t-79.5 -103.5 t-30.5 -123.5z" />
<glyph unicode="7" horiz-adv-x="1056" d="M94 0l836 1219q22 32 47.5 65t40.5 50l14 18v4q-40 -4 -112 -4h-689l17 82h907l-12 -62l-948 -1372h-101z" />
<glyph unicode="8" horiz-adv-x="1208" d="M86 344q0 81 34 158.5t77 128t99 96.5t83.5 63t46.5 27q-143 97 -143 244q0 74 34 145t95 127t152.5 90.5t197.5 34.5q184 0 281.5 -81.5t97.5 -223.5q0 -67 -27 -138t-62.5 -123.5t-79 -101t-69 -71t-39.5 -33.5q168 -107 168 -260q0 -127 -75.5 -232t-196.5 -162 t-258 -57q-178 0 -297 97t-119 272zM180 344q0 -130 93.5 -206.5t228.5 -76.5q107 0 206 43.5t164.5 128.5t65.5 191q0 43 -20 81.5t-49.5 65.5t-77 55.5t-89 48t-100.5 47.5t-96 48q-18 -10 -37 -20.5t-53 -34t-63.5 -48.5t-62.5 -61.5t-56 -74.5t-38.5 -87.5t-15.5 -99.5z M377 1063q0 -42 18.5 -79.5t44.5 -64t72.5 -55t83 -46t96 -45t92.5 -44.5q21 16 44 35t65.5 64t73.5 90.5t55.5 109t24.5 125.5q0 101 -77.5 160t-207.5 59q-166 0 -275.5 -91t-109.5 -218z" />
<glyph unicode="9" horiz-adv-x="1196" d="M84 33l53 76q94 -48 205 -48q97 0 187.5 38.5t162 103t131.5 150.5t101.5 178.5t66.5 189.5h-4q-75 -91 -189.5 -144t-234.5 -53q-173 0 -277 98t-104 267q0 103 37.5 204.5t103.5 182.5t166.5 131.5t215.5 50.5q132 0 226.5 -66.5t139.5 -179.5t45 -262 q0 -72 -15.5 -157.5t-48 -179.5t-78.5 -184.5t-111 -173t-141.5 -144.5t-174.5 -99t-205 -37q-148 0 -258 58zM274 889q0 -130 78 -204.5t211 -74.5q67 0 146.5 27.5t150 74t117.5 118.5t47 151q0 71 -20 139t-57 125t-98.5 92t-137.5 35q-182 0 -309.5 -140t-127.5 -343z " />
<glyph unicode=":" horiz-adv-x="440" d="M41 0l25 129h124l-24 -129h-125zM215 895l25 129h125l-25 -129h-125z" />
<glyph unicode=";" horiz-adv-x="577" d="M-6 -193l172 318h113l-195 -318h-90zM311 895l25 129h125l-25 -129h-125z" />
<glyph unicode="&#x3c;" d="M74 543v73l899 404v-98l-772 -340v-4l772 -340v-99z" />
<glyph unicode="=" d="M98 375v82h934v-82h-934zM98 702v82h934v-82h-934z" />
<glyph unicode="&#x3e;" d="M154 139v99l772 340v4l-772 340v98l899 -404v-73z" />
<glyph unicode="?" horiz-adv-x="886" d="M195 0l26 125h121l-27 -125h-120zM231 1362q62 41 150.5 68.5t167.5 27.5q157 0 248.5 -82t91.5 -215q0 -74 -24.5 -138t-65 -111.5t-89.5 -90t-101 -83t-97 -81.5t-80 -94.5t-47 -113.5l-18 -91h-88l18 91q15 71 50.5 133t80 107.5t95.5 87.5t99 82t87 82.5t62.5 97.5 t23.5 118q0 95 -67 155t-183 60q-141 0 -279 -86z" />
<glyph unicode="@" horiz-adv-x="1554" d="M96 356q0 116 34 230t93 211t141.5 180.5t176.5 142t201 92t212 33.5q113 0 197 -24t131 -66.5t69.5 -94.5t22.5 -116q0 -34 -6 -72l-135 -694h143l-16 -82h-526q-152 0 -247 94t-95 240q0 118 67 226.5t174.5 173.5t222.5 65h324q4 28 4 45q0 99 -76 161t-245 62 q-149 0 -291.5 -66t-248.5 -175.5t-170.5 -258.5t-64.5 -307q0 -228 143 -375t374 -147l-17 -84q-168 0 -303.5 78.5t-212 217t-76.5 310.5zM584 432q0 -110 72 -182t188 -72h297l123 635h-293q-98 0 -187.5 -53t-144.5 -141.5t-55 -186.5z" />
<glyph unicode="A" horiz-adv-x="1280" d="M-51 0l813 1434h92l260 -1434h-90l-88 496h-608l-281 -496h-98zM373 578h547l-103 581l-24 172h-5q-51 -111 -86 -172z" />
<glyph unicode="B" horiz-adv-x="1245" d="M100 0l281 1434h461q84 0 151 -25q81 -33 125.5 -101.5t44.5 -166.5q0 -137 -71 -237.5t-185 -145.5v-4q79 -28 128.5 -102.5t49.5 -182.5q0 -148 -73 -261t-193 -167q-86 -41 -196 -41h-523zM205 82h405q96 0 162 31q100 44 160.5 137t60.5 217q0 115 -70.5 180.5 t-191.5 65.5h-403zM344 795h389q138 0 238 97.5t100 248.5q0 98 -60 154.5t-169 56.5h-389z" />
<glyph unicode="C" horiz-adv-x="1472" d="M133 586q0 140 46.5 274t128.5 240.5t188.5 188t234 125.5t256.5 44q140 0 274.5 -44t217.5 -136l-62 -64q-76 76 -189 118t-241 42q-145 0 -284.5 -62t-244.5 -167t-169 -252t-64 -307q0 -230 141 -378.5t371 -148.5q137 0 277 52t246 143l51 -68 q-102 -92 -262.5 -151.5t-311.5 -59.5q-185 0 -323 79.5t-209.5 217.5t-71.5 314z" />
<glyph unicode="D" horiz-adv-x="1511" d="M100 0l281 1434h428q287 0 449.5 -145t162.5 -408q0 -180 -63 -341.5t-174 -280.5t-271 -189t-344 -70h-469zM203 82h348q165 0 309.5 61t247 166.5t162 253t59.5 314.5q0 228 -140.5 351.5t-389.5 123.5h-346z" />
<glyph unicode="E" horiz-adv-x="1132" d="M100 0l281 1434h784l-18 -82h-694l-115 -588h571l-16 -82h-569l-119 -600h733l-14 -82h-824z" />
<glyph unicode="F" horiz-adv-x="1026" d="M100 0l281 1434h723l-17 -82h-634l-117 -598h549l-17 -82h-549l-131 -672h-88z" />
<glyph unicode="G" horiz-adv-x="1544" d="M129 567q0 141 45.5 276t127.5 245t188.5 194t235.5 130t261 46q137 0 265 -38.5t221 -121.5l-62 -65q-71 65 -188 103t-236 38q-148 0 -288.5 -65t-245.5 -173.5t-168.5 -258.5t-63.5 -310q0 -225 136.5 -366.5t361.5 -141.5q147 0 288 69t255 183l51 260h-254l14 82 h344l-127 -653h-88l25 127l14 61h-4q-9 -9 -25 -23t-69 -51t-110 -65t-143 -51t-171 -23q-265 0 -427.5 166t-162.5 426z" />
<glyph unicode="H" horiz-adv-x="1521" d="M100 0l281 1434h88l-131 -674h909l131 674h88l-280 -1434h-88l133 678h-909l-134 -678h-88z" />
<glyph unicode="I" horiz-adv-x="524" d="M100 0l281 1434h88l-281 -1434h-88z" />
<glyph unicode="J" horiz-adv-x="1034" d="M14 285q0 33 13 106l8 45h88l-8 -45q-11 -57 -11 -92q0 -240 238 -240q56 0 109 17.5t104.5 54t90.5 103.5t56 157l185 961h-340l16 82h428l-205 -1055q-21 -110 -68.5 -191t-110 -126t-128.5 -66t-137 -21q-67 0 -124 17.5t-104 53t-73.5 97t-26.5 142.5z" />
<glyph unicode="K" horiz-adv-x="1161" d="M100 0l281 1434h88l-125 -639h258l543 639h106l-575 -678v-4l323 -752h-96l-303 713h-272l-140 -713h-88z" />
<glyph unicode="L" horiz-adv-x="1019" d="M100 0l281 1434h88l-264 -1352h684l-19 -82h-770z" />
<glyph unicode="M" horiz-adv-x="1710" d="M45 0l397 1434h80l242 -902l39 -161h4q53 89 100 161l594 902h90l-166 -1434h-88l127 1094q4 31 11.5 78.5t13.5 79.5l6 32h-4q-64 -120 -111 -190l-542 -818h-90l-226 818q-8 30 -18.5 78.5t-16.5 81.5l-6 34h-4q-21 -124 -39 -194l-305 -1094h-88z" />
<glyph unicode="N" horiz-adv-x="1521" d="M100 0l281 1434h72l598 -1125q16 -29 36.5 -74t32.5 -75l13 -31h4q8 108 22 180l219 1125h88l-280 -1434h-72l-598 1124q-16 29 -36.5 74.5t-33.5 75.5l-12 31h-4q-8 -109 -22 -181l-220 -1124h-88z" />
<glyph unicode="O" horiz-adv-x="1691" d="M131 590q0 172 74.5 333.5t194.5 278t278 186.5t319 70q270 0 440.5 -168t170.5 -430q0 -175 -75 -339.5t-195.5 -283.5t-278.5 -190.5t-318 -71.5q-270 0 -440 172.5t-170 442.5zM223 590q0 -233 144.5 -382t373.5 -149q142 0 283 64.5t249 171t175.5 255.5t67.5 308 q0 226 -145 371t-374 145q-145 0 -286 -63t-248 -167.5t-173.5 -250.5t-66.5 -303z" />
<glyph unicode="P" horiz-adv-x="1210" d="M100 0l281 1434h448q143 0 230 -50q74 -42 116 -116t42 -170q0 -161 -84 -285t-218 -180q-95 -39 -206 -39h-404l-117 -594h-88zM322 676h378q102 0 181 33q110 46 176.5 147.5t66.5 241.5q0 121 -78 187.5t-217 66.5h-376z" />
<glyph unicode="Q" horiz-adv-x="1691" d="M131 590q0 172 74.5 333.5t194.5 278t278 186.5t319 70q270 0 440.5 -168t170.5 -430q0 -185 -80.5 -354.5t-218.5 -296.5l141 -186l-61 -54l-144 189q-112 -87 -242 -135t-262 -48q-270 0 -440 172.5t-170 442.5zM223 590q0 -233 144.5 -382t373.5 -149q243 0 455 166 l-147 195l61 53l147 -197q119 114 189 266t70 316q0 226 -145 371t-374 145q-145 0 -286 -63t-248 -167.5t-173.5 -250.5t-66.5 -303z" />
<glyph unicode="R" horiz-adv-x="1236" d="M102 0l279 1434h455q124 0 198 -39t116 -112.5t42 -168.5q0 -177 -108 -304t-271 -159v-4q9 -16 21 -51l208 -596h-94l-221 635h-414l-123 -635h-88zM330 717h379q164 0 277.5 111t113.5 286q0 111 -69.5 174.5t-194.5 63.5h-383z" />
<glyph unicode="S" horiz-adv-x="1079" d="M25 154l63 63q5 -6 14 -16.5t41 -37.5t69 -47.5t98 -37.5t128 -17q104 0 192 37t143.5 111t55.5 172q0 59 -20.5 106.5t-55.5 81t-80.5 62t-95.5 52.5t-100 49t-95.5 55.5t-80.5 67.5t-55.5 90t-20.5 118q0 121 71 213t180 137t235 45q68 0 130 -14t101.5 -34t69 -40.5 t42.5 -34.5l13 -14l-57 -68q-4 5 -12 13t-36 28.5t-59.5 36t-83 28.5t-106.5 13q-57 0 -113 -12.5t-107 -38t-90 -61t-62.5 -85.5t-23.5 -108q0 -68 33.5 -120.5t86.5 -88t117.5 -67t129.5 -66t118 -76.5t86.5 -108.5t33.5 -151.5q0 -183 -136.5 -298.5t-345.5 -115.5 q-79 0 -150.5 18.5t-117.5 44.5t-81 52.5t-51 45.5z" />
<glyph unicode="T" horiz-adv-x="1220" d="M176 1352l14 82h1158l-15 -82h-536l-262 -1352h-89l263 1352h-533z" />
<glyph unicode="U" horiz-adv-x="1476" d="M172 383q0 55 12 117l183 934h88l-183 -936q-10 -46 -10 -107q0 -157 98 -244.5t275 -87.5q203 0 347 119t185 324l183 932h88l-189 -953q-45 -235 -211.5 -370.5t-402.5 -135.5q-214 0 -338.5 109t-124.5 299z" />
<glyph unicode="V" horiz-adv-x="1271" d="M209 1434h88l205 -1160l22 -172h4q51 104 90 172l658 1160h98l-815 -1434h-96z" />
<glyph unicode="W" horiz-adv-x="1857" d="M238 1434h88l73 -1168l4 -153h5q36 81 71 153l570 1168h102l80 -1168l4 -153h4q35 83 66 153l530 1168h98l-657 -1434h-111l-78 1081q-3 41 -4.5 98t-1.5 93v37h-4q-57 -134 -102 -226l-533 -1083h-106z" />
<glyph unicode="X" horiz-adv-x="1126" d="M-72 0l609 764l-281 670h94l187 -453l65 -160h4q51 74 117 156l369 457h110l-553 -684l322 -750h-94l-230 539l-61 153h-4q-43 -63 -113 -149l-436 -543h-105z" />
<glyph unicode="Y" horiz-adv-x="1161" d="M203 1434h94l227 -566l60 -161h4q64 87 119 159l448 568h109l-646 -813l-122 -621h-88l122 623z" />
<glyph unicode="Z" d="M-49 0l14 70l1002 1151q28 33 59.5 65.5t48.5 49.5l17 16v4q-31 -4 -103 -4h-733l18 82h949l-15 -70l-1003 -1151q-28 -33 -59 -65.5t-48 -49.5l-18 -16v-4q30 4 102 4h781l-15 -82h-997z" />
<glyph unicode="[" horiz-adv-x="540" d="M47 -195l326 1680h221l-16 -82h-134l-292 -1516h133l-17 -82h-221z" />
<glyph unicode="\" horiz-adv-x="784" d="M268 1516h86l205 -1602h-86z" />
<glyph unicode="]" horiz-adv-x="540" d="M-35 -195l17 82h133l293 1516h-134l17 82h221l-326 -1680h-221z" />
<glyph unicode="^" horiz-adv-x="1228" d="M174 516l404 918h65l404 -918h-95l-342 795l-342 -795h-94z" />
<glyph unicode="_" horiz-adv-x="1181" d="M-37 -82l14 82h1016l-14 -82h-1016z" />
<glyph unicode="`" horiz-adv-x="1042" d="M309 1763h107l92 -227h-82z" />
<glyph unicode="a" horiz-adv-x="1040" d="M14 231q0 80 31 144t86.5 106t122.5 71.5t149.5 44.5t155.5 21.5t152 6.5h80q14 79 14 131q0 99 -53 154t-177 55q-78 0 -161.5 -27t-149.5 -72l-37 78q64 45 157.5 75t190.5 30q157 0 238.5 -70.5t81.5 -210.5q0 -52 -12 -117l-127 -651h-86l26 133q4 24 10.5 47.5 t10.5 35.5l4 11h-4q-20 -40 -54.5 -80.5t-83.5 -80.5t-116.5 -65.5t-140.5 -25.5q-131 0 -219.5 69t-88.5 187zM104 240q0 -78 58 -131.5t168 -53.5q78 0 152.5 40.5t130.5 105t96 142t57 155.5l10 47h-65q-607 0 -607 -305z" />
<glyph unicode="b" horiz-adv-x="1181" d="M61 0l279 1434h86l-100 -523q-4 -21 -11.5 -44.5t-12.5 -36.5l-5 -13h4q58 102 165.5 167t229.5 65q178 0 275.5 -108t97.5 -296q0 -144 -47 -270.5t-124 -213t-178 -136.5t-208 -50q-123 0 -211.5 60.5t-118.5 171.5h-4q0 -48 -10 -101l-21 -106h-86zM231 377 q0 -140 70.5 -229t210.5 -89q83 0 165.5 40.5t150 113t109.5 184.5t42 244q0 151 -75.5 237.5t-207.5 86.5q-84 0 -159.5 -34.5t-130.5 -93t-95 -134t-60 -159.5t-20 -167z" />
<glyph unicode="c" horiz-adv-x="1105" d="M78 403q0 113 36 216t97.5 180t141 134t169.5 86.5t180 29.5q104 0 202.5 -37t158.5 -109l-62 -63q-49 58 -128.5 91.5t-165.5 33.5q-97 0 -193 -40.5t-173 -111.5t-125 -176.5t-48 -224.5q0 -160 103 -256.5t261 -96.5q101 0 199 39.5t172 108.5l33 -78 q-75 -69 -182 -111.5t-217 -42.5q-201 0 -330 116.5t-129 311.5z" />
<glyph unicode="d" horiz-adv-x="1185" d="M80 379q0 144 47 270.5t124 213t178 136.5t208 50q122 0 211 -60.5t119 -171.5h4q0 47 10 94l102 523h86l-278 -1434h-86l22 119q4 21 10 43t11 34l4 11h-4q-57 -97 -160 -164.5t-233 -67.5q-181 0 -278 107.5t-97 296.5zM170 383q0 -151 76 -237.5t209 -86.5 q84 0 159.5 35.5t129.5 95t94 135.5t60 159t20 163q0 139 -71 228.5t-210 89.5q-83 0 -165.5 -41t-150 -113.5t-109.5 -184.5t-42 -243z" />
<glyph unicode="e" horiz-adv-x="1122" d="M80 403q0 122 45 239t122.5 207t190 145t238.5 55q177 0 266.5 -99t89.5 -264q0 -69 -26 -160h-822q-12 -58 -12 -112q0 -155 93.5 -255t266.5 -100q183 0 342 129l33 -77q-67 -55 -169.5 -95.5t-205.5 -40.5q-200 0 -326 116.5t-126 311.5zM205 606h727q8 31 8 86 q0 137 -73 207t-191 70q-96 0 -186.5 -40t-167 -123.5t-117.5 -199.5z" />
<glyph unicode="f" horiz-adv-x="634" d="M92 0l182 940h-129l15 78h129l10 51q19 95 58 167t80.5 110.5t92.5 62t86.5 29.5t69.5 6q44 0 64 -4l-19 -80q-20 4 -45 4q-29 0 -58 -5t-68 -24t-71 -49.5t-60.5 -87t-43.5 -131.5l-10 -49h280l-14 -78h-281l-182 -940h-86z" />
<glyph unicode="g" horiz-adv-x="1169" d="M16 -350l50 71q47 -28 121.5 -47.5t144.5 -19.5q172 0 295.5 88t160.5 264l23 109q4 21 10.5 44.5t11.5 36.5l5 13h-4q-131 -209 -365 -209q-178 0 -282.5 108t-104.5 293q0 87 22 177.5t67 175t107.5 150t150.5 105.5t189 40q79 0 145 -17.5t120 -64.5t73 -119h5 q-2 24 2 49l24 127h86l-199 -1028q-22 -113 -75 -198t-126.5 -133.5t-156 -71.5t-174.5 -23q-179 0 -326 80zM172 403q0 -150 79.5 -234.5t219.5 -84.5q87 0 161 38t124 100t85.5 141.5t51.5 162.5t16 164q0 144 -77 209.5t-209 65.5q-104 0 -191.5 -50t-143 -131t-86 -180 t-30.5 -201z" />
<glyph unicode="h" horiz-adv-x="1198" d="M61 0l279 1434h86l-111 -580l-26 -94h4q22 43 63.5 90.5t101 93.5t143 75.5t171.5 29.5q140 0 212.5 -66.5t72.5 -191.5q0 -55 -17 -142l-125 -649h-86l119 618q19 101 19 156q0 95 -53 143t-144 48q-93 0 -182.5 -39.5t-159 -106t-119.5 -155t-69 -185.5l-93 -479h-86z " />
<glyph unicode="i" horiz-adv-x="442" d="M61 0l201 1024h86l-201 -1024h-86zM303 1284l31 150h102l-30 -150h-103z" />
<glyph unicode="j" horiz-adv-x="442" d="M-309 -416l16 80q12 -4 45 -4q29 0 57.5 5t68 24t71 49t60.5 87t44 132l207 1067h86l-207 -1065q-19 -97 -55.5 -169.5t-76.5 -111.5t-89 -62t-84.5 -29.5t-71.5 -6.5q-51 0 -71 4zM301 1284l29 150h102l-29 -150h-102z" />
<glyph unicode="k" horiz-adv-x="962" d="M61 0l281 1434h86l-160 -813h174l414 403h117l-455 -442v-4l291 -578h-98l-269 541h-188l-107 -541h-86z" />
<glyph unicode="l" horiz-adv-x="477" d="M96 158q0 24 6 59l238 1217h86l-233 -1203q-7 -40 -7 -59q0 -33 9 -54.5t26 -30t31 -11t35 -2.5q14 0 26 2l-18 -80q-12 -4 -35 -4q-25 0 -49 6t-52 22t-45.5 51.5t-17.5 86.5z" />
<glyph unicode="m" horiz-adv-x="1878" d="M61 0l199 1024h86l-33 -170l-26 -94h4q61 122 188.5 205.5t261.5 83.5q146 0 207.5 -70.5t61.5 -208.5h4q64 121 186 200t254 79q139 0 211 -69.5t72 -195.5q0 -52 -17 -135l-125 -649h-86l119 618q19 101 19 150q0 96 -47 148.5t-158 52.5q-87 0 -169.5 -43t-143 -111.5 t-102.5 -150.5t-58 -164l-97 -500h-86l119 618q19 101 19 156q0 92 -44.5 143.5t-152.5 51.5q-86 0 -169 -41.5t-145.5 -108.5t-107 -151t-61.5 -170l-97 -498h-86z" />
<glyph unicode="n" horiz-adv-x="1198" d="M61 0l199 1024h86l-31 -170q-4 -21 -11 -44.5t-12 -36.5l-5 -13h4q17 34 46 71t74.5 76.5t98 70.5t121.5 51t141 20q140 0 212.5 -66.5t72.5 -191.5q0 -55 -17 -142l-125 -649h-86l119 618q19 101 19 156q0 95 -53 143t-144 48q-125 0 -238.5 -67.5t-190 -178 t-101.5 -240.5l-93 -479h-86z" />
<glyph unicode="o" horiz-adv-x="1269" d="M78 420q0 127 53.5 244.5t140 201t201 133.5t232.5 50q201 0 326.5 -123.5t125.5 -315.5q0 -128 -54 -247t-141 -203t-201 -134.5t-231 -50.5q-201 0 -326.5 125t-125.5 320zM168 422q0 -159 101 -261t261 -102q99 0 196 43.5t172.5 116.5t122 176t46.5 213 q0 156 -101 256.5t-261 100.5q-136 0 -259.5 -72.5t-200.5 -199t-77 -271.5z" />
<glyph unicode="p" horiz-adv-x="1183" d="M-18 -410l278 1434h86l-20 -113q-4 -21 -10 -44t-10 -35l-5 -13h4q58 99 158.5 164.5t232.5 65.5q179 0 277 -108t98 -296q0 -144 -46.5 -270.5t-123.5 -213t-177 -136.5t-206 -50q-124 0 -214 59.5t-120 172.5h-4q-2 -48 -12 -101l-100 -516h-86zM233 383 q0 -140 72.5 -232t208.5 -92q83 0 165.5 40.5t150 113t109.5 184.5t42 244q0 151 -76 237.5t-209 86.5q-103 0 -192.5 -53.5t-147.5 -138t-90.5 -187t-32.5 -203.5z" />
<glyph unicode="q" horiz-adv-x="1183" d="M78 377q0 145 47 272t124.5 213.5t179 136.5t208.5 50q122 0 210 -60t118 -170h4q2 35 10 82l22 123h86l-278 -1434h-86l100 516q4 24 11.5 49t12.5 39l5 13h-4q-59 -100 -159.5 -166t-235.5 -66q-179 0 -277 107.5t-98 294.5zM168 383q0 -151 76.5 -237.5t208.5 -86.5 q84 0 159.5 35.5t130 95t95 135.5t60.5 159t20 163q0 139 -71 228.5t-210 89.5q-83 0 -166 -41t-150.5 -113.5t-110 -184.5t-42.5 -243z" />
<glyph unicode="r" horiz-adv-x="696" d="M61 0l199 1024h86l-37 -184l-26 -95h4q60 123 159 205t222 82q26 0 61 -6l-18 -86q-32 4 -45 4q-72 0 -138 -37.5t-114.5 -96.5t-88.5 -134.5t-64.5 -146.5t-37.5 -138l-76 -391h-86z" />
<glyph unicode="s" horiz-adv-x="880" d="M-2 125l55 61q48 -58 127 -92.5t166 -34.5q72 0 135 22t105.5 70t42.5 113q0 50 -26 89t-68 64t-92.5 47.5t-100.5 47.5t-92 56t-68 80.5t-26 113.5q0 91 54.5 158t137.5 98t180 31q90 0 167.5 -29t125.5 -86l-57 -62q-87 93 -238 93q-51 0 -98.5 -11.5t-89.5 -35 t-67 -63.5t-25 -91t26 -90t68 -64t92 -47.5t100.5 -47t92.5 -54.5t68 -78t26 -111q0 -132 -107 -214.5t-268 -82.5q-100 0 -193 38t-153 112z" />
<glyph unicode="t" horiz-adv-x="608" d="M131 940l14 78h136l57 291h86l-57 -291h268l-14 -78h-269l-108 -563q-11 -54 -11 -101q0 -204 183 -204q27 0 59 4l-16 -80q-12 -4 -43 -4q-269 0 -269 280q0 46 13 119l106 549h-135z" />
<glyph unicode="u" horiz-adv-x="1187" d="M106 233q0 55 17 142l125 649h86l-119 -614q-18 -89 -18 -160q0 -91 45 -141t157 -50q93 0 181.5 43t155 112.5t113.5 157t64 177.5l93 475h86l-199 -1024h-86l33 170q4 21 10.5 44.5t11.5 36.5l4 13h-4q-23 -44 -63 -90t-99 -93t-142 -76.5t-173 -29.5 q-122 0 -200.5 62.5t-78.5 195.5z" />
<glyph unicode="v" horiz-adv-x="1013" d="M139 1024h88l156 -809q4 -22 7.5 -49.5t5.5 -44.5l1 -17h4q31 62 60 111l469 809h96l-600 -1024h-82z" />
<glyph unicode="w" horiz-adv-x="1685" d="M145 1024h88l123 -809l13 -111h4q30 62 57 111l434 805h101l122 -805q4 -22 8 -49.5t5 -44.5l2 -17h4q28 60 55 111l438 809h95l-559 -1024h-93l-131 801l-12 110h-4q-30 -61 -57 -110l-435 -801h-96z" />
<glyph unicode="x" horiz-adv-x="942" d="M-72 0l478 543l-246 481h98l182 -367l27 -57h2q18 24 41 51l321 373h109l-428 -492l274 -532h-96l-211 416l-26 61h-4q-16 -26 -43 -55l-369 -422h-109z" />
<glyph unicode="y" horiz-adv-x="1064" d="M-147 -373l49 68q43 -43 118 -43q126 0 238 182l109 174l-230 1016h90l179 -831l18 -97h2q26 48 55 97l500 831h98l-776 -1270q-114 -184 -283 -184q-95 0 -167 57z" />
<glyph unicode="z" horiz-adv-x="987" d="M-41 0l12 70l766 780q20 21 43 44t38 36.5t16 13.5v4q-35 -4 -103 -4h-563l14 80h791l-15 -70l-768 -780q-23 -23 -46 -45.5t-37.5 -36t-14.5 -12.5v-4q37 4 105 4h614l-14 -80h-838z" />
<glyph unicode="{" horiz-adv-x="663" d="M98 616l17 82q84 17 143 82.5t78 161.5l33 166q20 102 58 176.5t75 111.5t84.5 58t75.5 25t59 4h16l-14 -80h-10q-18 0 -37 -3t-54 -19.5t-63.5 -45.5t-57.5 -87.5t-44 -137.5l-37 -190q-18 -93 -73 -163.5t-140 -97.5v-4q52 -29 84.5 -83t32.5 -119q0 -23 -7 -58 l-43 -217q-12 -61 -12 -106q0 -50 13 -87t30.5 -55.5t41.5 -29t39.5 -13t31.5 -2.5h10l-16 -80q-6 -2 -19 -2q-19 0 -42 4t-56 20t-58.5 41.5t-44 74.5t-18.5 114q0 44 14 123l37 193q6 38 6 65q0 142 -133 178z" />
<glyph unicode="|" horiz-adv-x="600" d="M262 -317v1925h88v-1925h-88z" />
<glyph unicode="}" horiz-adv-x="663" d="M-55 -197l14 82h21q8 0 18 1t31 7.5t40.5 17t44 32.5t44 52t38 77.5t29.5 105.5l41 215q19 100 74 171t139 95v5q-114 70 -114 196q0 28 6 58l37 192q12 62 12 107q0 50 -13 86.5t-30.5 55t-42 29.5t-39.5 13t-31 2h-10l16 80q6 2 19 2q19 0 42 -4t56 -20t58.5 -41.5 t44 -74.5t18.5 -114q0 -44 -14 -123l-33 -168q-6 -38 -6 -66q0 -68 35 -116.5t98 -61.5l-17 -82q-87 -18 -145 -84t-76 -159l-37 -191q-15 -74 -38.5 -134t-49.5 -98.5t-58 -67t-59 -43t-58 -22.5t-49.5 -10t-39.5 -2h-16z" />
<glyph unicode="~" horiz-adv-x="1177" d="M139 436q0 152 64.5 223.5t171.5 71.5q54 0 98.5 -16.5t72 -41.5t56.5 -54.5t53 -54.5t61 -41.5t81 -16.5q48 0 81 23t47.5 60.5t19.5 69t5 64.5h82q0 -152 -64 -223.5t-171 -71.5q-54 0 -98.5 16.5t-72 41.5t-56.5 54.5t-53 54.5t-61 41.5t-81 16.5q-39 0 -68.5 -16.5 t-45 -39.5t-25.5 -55t-12.5 -56.5t-2.5 -49.5h-82z" />
<glyph unicode="&#xa2;" d="M129 569q0 94 22.5 191.5t69.5 189.5t112 165t156.5 119.5t196.5 51.5l33 172h88l-35 -174q56 -7 104 -26.5t80 -45t58 -55t41 -58t24.5 -51.5t12.5 -37l4 -14l-84 -32q-2 10 -6.5 26t-25 56.5t-50 72t-85.5 57t-126 25.5q-151 0 -266 -91.5t-172.5 -235t-57.5 -312.5 q0 -153 75.5 -242.5t231.5 -89.5q68 0 132.5 24.5t107 59.5t75.5 70t49 59l15 25l84 -33q-6 -11 -18 -30t-54 -67.5t-89.5 -86t-123.5 -70.5t-157 -37l-33 -172h-88l33 174q-157 19 -245.5 128.5t-88.5 293.5z" />
<glyph unicode="&#xa3;" d="M-6 0l16 82h131l117 600h-92l16 82h90l68 342q28 147 157 249.5t298 102.5q182 0 297 -106l-68 -62q-42 39 -103.5 60.5t-125.5 21.5q-147 0 -246.5 -82.5t-122.5 -202.5l-64 -323h406l-16 -82h-406l-117 -600h719l-16 -82h-938z" />
<glyph unicode="&#xa5;" d="M166 455l14 82h334l18 86l-40 98h-275l16 82h226l-256 631h96l225 -566l62 -161h4q62 87 117 159l448 568h109l-502 -631h221l-16 -82h-271l-75 -98l-19 -86h328l-15 -82h-327l-90 -455h-88l90 455h-334z" />
<glyph unicode="&#xa8;" horiz-adv-x="1042" d="M215 1614l29 149h94l-29 -149h-94zM496 1614l28 149h94l-28 -149h-94z" />
<glyph unicode="&#xa9;" horiz-adv-x="1722" d="M160 717q0 152 57 289.5t153.5 236.5t230 157t280.5 58q150 0 285 -58t232.5 -157t154.5 -236t57 -290t-57 -291t-154.5 -236.5t-232.5 -156.5t-285 -58q-197 0 -362.5 98t-262 269t-96.5 375zM252 717q0 -183 83 -333.5t227.5 -236.5t318.5 -86q177 0 323.5 86 t230 236.5t83.5 333.5q0 136 -49.5 257.5t-134 208.5t-202.5 138t-251 51q-174 0 -318.5 -86t-227.5 -236.5t-83 -332.5zM465 715q0 82 28.5 158.5t81.5 138t139 98.5t191 37q96 0 186.5 -49t147.5 -131l-68 -60q-41 64 -114.5 108t-149.5 44q-165 0 -257.5 -101.5 t-92.5 -240.5q0 -65 22.5 -125.5t64.5 -109t110.5 -78t152.5 -29.5q78 0 147 41.5t117 109.5l68 -59q-57 -79 -147.5 -129.5t-186.5 -50.5q-106 0 -191.5 36.5t-139 97.5t-81.5 136.5t-28 157.5z" />
<glyph unicode="&#xab;" horiz-adv-x="999" d="M104 584l394 415h116l-407 -426l258 -415h-98zM422 584l418 415h116l-432 -426l258 -415h-98z" />
<glyph unicode="&#xad;" horiz-adv-x="884" d="M147 539l15 82h565l-14 -82h-566z" />
<glyph unicode="&#xae;" horiz-adv-x="1722" d="M160 717q0 152 57 289.5t153.5 236.5t230 157t280.5 58q150 0 285 -58t232.5 -157t154.5 -236t57 -290t-57 -291t-154.5 -236.5t-232.5 -156.5t-285 -58q-197 0 -362.5 98t-262 269t-96.5 375zM252 717q0 -183 83 -333.5t227.5 -236.5t318.5 -86q177 0 323.5 86 t230 236.5t83.5 333.5q0 136 -49.5 257.5t-134 208.5t-202.5 138t-251 51q-174 0 -318.5 -86t-227.5 -236.5t-83 -332.5zM643 307v819h272q105 0 171.5 -65.5t66.5 -171.5q0 -87 -45.5 -145t-112.5 -74v-4q9 -10 27 -45l162 -314h-101l-174 342h-176v-342h-90zM733 727h172 q71 0 113.5 43.5t42.5 118.5q0 73 -42.5 114t-113.5 41h-172v-317z" />
<glyph unicode="&#xb4;" horiz-adv-x="1042" d="M256 1536l182 227h123l-207 -227h-98z" />
<glyph unicode="&#xb8;" horiz-adv-x="1042" d="M217 -408l16 76q27 -10 80 -10q50 0 88.5 20.5t38.5 67.5q0 30 -28.5 48t-81.5 18q-17 0 -25 -2l92 227l68 -12l-57 -148q50 -8 83 -42t33 -89q0 -54 -33.5 -93t-79.5 -55t-96 -16q-57 0 -98 10z" />
<glyph unicode="&#xbb;" horiz-adv-x="999" d="M35 158l432 426l-258 415h98l262 -426l-417 -415h-117zM377 158l407 426l-258 415h99l262 -426l-393 -415h-117z" />
<glyph unicode="&#x2c6;" horiz-adv-x="1040" d="M162 1536l209 227h106l119 -227h-94l-82 164h-4l-148 -164h-106z" />
<glyph unicode="&#x2da;" horiz-adv-x="1044" d="M268 1636q0 60 46 107t106 47q61 0 94 -32.5t33 -88.5q0 -60 -46 -106.5t-106 -46.5q-61 0 -94 31.5t-33 88.5zM340 1636q0 -22 14.5 -35.5t40.5 -13.5q33 0 56.5 23.5t23.5 58.5q0 23 -15 37t-40 14q-33 0 -56.5 -24t-23.5 -60z" />
<glyph unicode="&#x2dc;" horiz-adv-x="1042" d="M102 1542q41 221 197 221q37 0 65.5 -15.5t46.5 -37.5t34 -44.5t36 -38t45 -15.5t45.5 15.5t32.5 40t18.5 46t10.5 43.5h82q-22 -112 -69 -166.5t-130 -54.5q-44 0 -77.5 24t-50.5 52t-43 52t-56 24t-54.5 -28t-35 -58t-15.5 -60h-82z" />
<glyph unicode="&#x400;" horiz-adv-x="1132" d="M100 0l281 1434h784l-18 -82h-694l-115 -588h571l-16 -82h-569l-119 -600h733l-14 -82h-824zM684 1763h107l92 -227h-82z" />
<glyph unicode="&#x401;" horiz-adv-x="1132" d="M100 0l281 1434h784l-18 -82h-694l-115 -588h571l-16 -82h-569l-119 -600h733l-14 -82h-824zM645 1614l29 149h94l-29 -149h-94zM926 1614l28 149h95l-29 -149h-94z" />
<glyph unicode="&#x402;" horiz-adv-x="1456" d="M172 1352l16 82h1010l-16 -82h-500l-102 -531l-15 -61h4q79 37 186.5 65.5t215.5 28.5q185 0 283 -93t98 -259q0 -101 -37 -195t-103.5 -168t-169 -119t-225.5 -45q-18 0 -58 3.5t-46 3.5l14 79q37 -6 92 -6q127 0 229 61.5t157 163.5t55 222q0 268 -302 268 q-210 0 -411 -111l-127 -659h-88l262 1352h-422z" />
<glyph unicode="&#x403;" horiz-adv-x="980" d="M100 0l281 1434h723l-17 -82h-634l-265 -1352h-88zM694 1536l183 227h122l-206 -227h-99z" />
<glyph unicode="&#x404;" horiz-adv-x="1464" d="M131 584q0 131 43 260t122.5 239t185 194.5t239 132.5t274.5 48q142 0 269.5 -45t210.5 -135l-58 -64q-77 77 -189.5 118.5t-242.5 41.5q-172 0 -328.5 -83.5t-264 -223t-148.5 -307.5h868l-16 -82h-867q-6 -50 -6 -96q0 -236 142.5 -379.5t371.5 -143.5q139 0 277.5 54 t245.5 147l43 -70q-110 -96 -266 -155.5t-312 -59.5q-178 0 -314.5 81t-208 219t-71.5 309z" />
<glyph unicode="&#x405;" horiz-adv-x="1079" d="M25 154l63 63q5 -6 14 -16.5t41 -37.5t69 -47.5t98 -37.5t128 -17q104 0 192 37t143.5 111t55.5 172q0 59 -20.5 106.5t-55.5 81t-80.5 62t-95.5 52.5t-100 49t-95.5 55.5t-80.5 67.5t-55.5 90t-20.5 118q0 121 71 213t180 137t235 45q68 0 130 -14t101.5 -34t69 -40.5 t42.5 -34.5l13 -14l-57 -68q-4 5 -12 13t-36 28.5t-59.5 36t-83 28.5t-106.5 13q-57 0 -113 -12.5t-107 -38t-90 -61t-62.5 -85.5t-23.5 -108q0 -68 33.5 -120.5t86.5 -88t117.5 -67t129.5 -66t118 -76.5t86.5 -108.5t33.5 -151.5q0 -183 -136.5 -298.5t-345.5 -115.5 q-79 0 -150.5 18.5t-117.5 44.5t-81 52.5t-51 45.5z" />
<glyph unicode="&#x406;" horiz-adv-x="524" d="M100 0l281 1434h88l-281 -1434h-88z" />
<glyph unicode="&#x407;" horiz-adv-x="524" d="M100 0l281 1434h88l-281 -1434h-88zM274 1614l29 149h94l-28 -149h-95zM555 1614l29 149h94l-29 -149h-94z" />
<glyph unicode="&#x408;" horiz-adv-x="1034" d="M14 285q0 33 13 106l8 45h88l-8 -45q-11 -57 -11 -92q0 -240 238 -240q56 0 109 17.5t104.5 54t90.5 103.5t56 157l185 961h-340l16 82h428l-205 -1055q-21 -110 -68.5 -191t-110 -126t-128.5 -66t-137 -21q-67 0 -124 17.5t-104 53t-73.5 97t-26.5 142.5z" />
<glyph unicode="&#x409;" horiz-adv-x="1892" d="M-66 -16l17 86q70 10 131 49.5t113 109.5t96.5 161t84.5 214t73.5 257.5t66.5 301.5l53 271h676l-125 -635h289q173 0 277 -86t104 -244q0 -92 -37.5 -177.5t-103 -150t-159.5 -103t-200 -38.5h-413l264 1352h-500l-37 -183q-31 -154 -59 -274t-65 -246t-75.5 -219 t-88.5 -178.5t-106 -140.5t-126 -89t-150 -38zM981 82h307q171 0 290.5 111t119.5 270q0 125 -77.5 189.5t-207.5 64.5h-307z" />
<glyph unicode="&#x40a;" horiz-adv-x="2011" d="M100 0l281 1434h88l-125 -637h807l125 637h88l-125 -635h289q173 0 277 -86t104 -244q0 -92 -37.5 -177.5t-103 -150t-159.5 -103t-200 -38.5h-414l140 715h-807l-140 -715h-88zM1100 82h307q171 0 290.5 111t119.5 270q0 125 -77.5 189.5t-207.5 64.5h-307z" />
<glyph unicode="&#x40b;" horiz-adv-x="1441" d="M172 1352l16 82h1008l-16 -82h-498l-107 -541l-18 -68h4q79 42 193.5 76.5t232.5 34.5q162 0 246 -73.5t84 -202.5q0 -58 -12 -123l-91 -455h-88l88 440q15 73 15 113q0 109 -60.5 163t-187.5 54q-122 0 -245 -40t-193 -85l-127 -645h-88l266 1352h-422z" />
<glyph unicode="&#x40c;" horiz-adv-x="1163" d="M100 0l281 1434h88l-125 -639h258l543 639h106l-575 -678v-4l323 -752h-96l-303 713h-272l-140 -713h-88zM733 1536l182 227h123l-207 -227h-98z" />
<glyph unicode="&#x40d;" horiz-adv-x="1533" d="M100 0l281 1434h88l-217 -1117q-6 -32 -17 -76t-19 -72l-7 -28h4q101 121 160 187l1024 1106h82l-281 -1434h-88l217 1116q6 32 17 76l18 72l8 28h-4q-95 -114 -154 -180l-1030 -1112h-82zM807 1763h106l93 -227h-82z" />
<glyph unicode="&#x40e;" horiz-adv-x="1183" d="M72 61l53 68q84 -72 158 -72q30 0 57.5 12t47.5 27.5t46 50t42 60t46 76.5l-348 1151h92l264 -873q11 -36 23 -83t19 -76l6 -29h4q59 106 106 188l498 873h102l-723 -1241q-128 -218 -289 -218q-96 0 -204 86zM543 1686q0 28 12 77h84q-10 -35 -10 -63q0 -55 38 -85 t95 -30q70 0 125.5 43.5t66.5 134.5h84q-9 -60 -30 -106.5t-48 -75t-62 -46.5t-69 -25t-71 -7q-87 0 -151 50.5t-64 132.5z" />
<glyph unicode="&#x40f;" horiz-adv-x="1468" d="M102 0l279 1434h88l-262 -1352h854l262 1352h88l-278 -1434h-471l-56 -287h-88l55 287h-471z" />
<glyph unicode="&#x410;" horiz-adv-x="1280" d="M-51 0l813 1434h92l260 -1434h-90l-88 496h-608l-281 -496h-98zM373 578h547l-103 581l-24 172h-5q-51 -111 -86 -172z" />
<glyph unicode="&#x411;" horiz-adv-x="1196" d="M100 0l281 1434h782l-16 -82h-694l-105 -533h338q170 0 272.5 -82.5t102.5 -242.5q0 -110 -39 -204t-104.5 -156.5t-150 -98t-175.5 -35.5h-492zM205 82h375q163 0 276 110.5t113 296.5q0 117 -72 182.5t-192 65.5h-373z" />
<glyph unicode="&#x412;" horiz-adv-x="1245" d="M100 0l281 1434h461q84 0 151 -25q81 -33 125.5 -101.5t44.5 -166.5q0 -137 -71 -237.5t-185 -145.5v-4q79 -28 128.5 -102.5t49.5 -182.5q0 -148 -73 -261t-193 -167q-86 -41 -196 -41h-523zM205 82h405q96 0 162 31q100 44 160.5 137t60.5 217q0 115 -70.5 180.5 t-191.5 65.5h-403zM344 795h389q138 0 238 97.5t100 248.5q0 98 -60 154.5t-169 56.5h-389z" />
<glyph unicode="&#x413;" horiz-adv-x="980" d="M100 0l281 1434h723l-17 -82h-634l-265 -1352h-88z" />
<glyph unicode="&#x414;" horiz-adv-x="1406" d="M-156 -287l72 369h150q95 111 174.5 254.5t134 290t91 281t56.5 261.5l51 265h744l-262 -1352h159l-71 -369h-86l55 287h-1124l-56 -287h-88zM176 82h791l245 1270h-567l-35 -181q-44 -276 -158 -578.5t-276 -510.5z" />
<glyph unicode="&#x415;" horiz-adv-x="1132" d="M100 0l281 1434h784l-18 -82h-694l-115 -588h571l-16 -82h-569l-119 -600h733l-14 -82h-824z" />
<glyph unicode="&#x416;" horiz-adv-x="1697" d="M-68 0l615 754v4l-307 676h100l285 -639h219l125 639h88l-125 -639h205l534 639h115l-574 -676v-4l322 -754h-100l-299 713h-220l-139 -713h-88l139 713h-206l-578 -713h-111z" />
<glyph unicode="&#x417;" horiz-adv-x="1073" d="M-10 156l59 61q46 -65 128 -110.5t202 -45.5q121 0 223.5 48.5t163.5 137t61 197.5q0 127 -82.5 191.5t-212.5 64.5h-182l17 82h145q95 0 184 42t148 122.5t59 179.5q0 107 -69.5 176.5t-208.5 69.5q-179 0 -334 -117l-43 70q181 133 366 133t283 -86t98 -237 q0 -143 -81.5 -242t-213.5 -141v-4q220 -67 220 -295q0 -135 -72.5 -245.5t-192.5 -171.5t-260 -61q-117 0 -227 45.5t-178 135.5z" />
<glyph unicode="&#x418;" horiz-adv-x="1533" d="M100 0l281 1434h88l-217 -1117q-6 -32 -17 -76t-19 -72l-7 -28h4q101 121 160 187l1024 1106h82l-281 -1434h-88l217 1116q6 32 17 76l18 72l8 28h-4q-95 -114 -154 -180l-1030 -1112h-82z" />
<glyph unicode="&#x419;" horiz-adv-x="1533" d="M100 0l281 1434h88l-217 -1117q-6 -32 -17 -76t-19 -72l-7 -28h4q101 121 160 187l1024 1106h82l-281 -1434h-88l217 1116q6 32 17 76l18 72l8 28h-4q-95 -114 -154 -180l-1030 -1112h-82zM735 1686q0 24 13 77h83q-10 -35 -10 -63q0 -55 38 -85t95 -30q70 0 126 43.5 t67 134.5h84q-11 -74 -40 -127.5t-69 -81t-82 -39.5t-90 -12q-87 0 -151 50.5t-64 132.5z" />
<glyph unicode="&#x41a;" horiz-adv-x="1163" d="M100 0l281 1434h88l-125 -639h258l543 639h106l-575 -678v-4l323 -752h-96l-303 713h-272l-140 -713h-88z" />
<glyph unicode="&#x41b;" horiz-adv-x="1331" d="M-102 -16l16 86q101 14 185 92.5t151.5 220.5t121 324.5t101.5 425.5l59 301h744l-281 -1434h-88l264 1352h-567l-43 -217q-29 -148 -56.5 -266t-63.5 -238.5t-74.5 -211t-87.5 -172.5t-105 -135.5t-126 -87.5t-150 -40z" />
<glyph unicode="&#x41c;" horiz-adv-x="1710" d="M45 0l397 1434h80l242 -902l39 -161h4q53 89 100 161l594 902h90l-166 -1434h-88l127 1094q4 31 11.5 78.5t13.5 79.5l6 32h-4q-64 -120 -111 -190l-542 -818h-90l-226 818q-8 30 -18.5 78.5t-16.5 81.5l-6 34h-4q-21 -124 -39 -194l-305 -1094h-88z" />
<glyph unicode="&#x41d;" horiz-adv-x="1521" d="M100 0l281 1434h88l-131 -674h909l131 674h88l-280 -1434h-88l133 678h-909l-134 -678h-88z" />
<glyph unicode="&#x41e;" horiz-adv-x="1691" d="M131 590q0 172 74.5 333.5t194.5 278t278 186.5t319 70q270 0 440.5 -168t170.5 -430q0 -175 -75 -339.5t-195.5 -283.5t-278.5 -190.5t-318 -71.5q-270 0 -440 172.5t-170 442.5zM223 590q0 -233 144.5 -382t373.5 -149q142 0 283 64.5t249 171t175.5 255.5t67.5 308 q0 226 -145 371t-374 145q-145 0 -286 -63t-248 -167.5t-173.5 -250.5t-66.5 -303z" />
<glyph unicode="&#x41f;" horiz-adv-x="1501" d="M100 0l281 1434h1065l-281 -1434h-88l264 1352h-888l-265 -1352h-88z" />
<glyph unicode="&#x420;" horiz-adv-x="1210" d="M100 0l281 1434h448q143 0 230 -50q74 -42 116 -116t42 -170q0 -161 -84 -285t-218 -180q-95 -39 -206 -39h-404l-117 -594h-88zM322 676h378q102 0 181 33q110 46 176.5 147.5t66.5 241.5q0 121 -78 187.5t-217 66.5h-376z" />
<glyph unicode="&#x421;" horiz-adv-x="1472" d="M133 586q0 140 46.5 274t128.5 240.5t188.5 188t234 125.5t256.5 44q140 0 274.5 -44t217.5 -136l-62 -64q-76 76 -189 118t-241 42q-145 0 -284.5 -62t-244.5 -167t-169 -252t-64 -307q0 -230 141 -378.5t371 -148.5q137 0 277 52t246 143l51 -68 q-102 -92 -262.5 -151.5t-311.5 -59.5q-185 0 -323 79.5t-209.5 217.5t-71.5 314z" />
<glyph unicode="&#x422;" horiz-adv-x="1220" d="M176 1352l14 82h1158l-15 -82h-536l-262 -1352h-89l263 1352h-533z" />
<glyph unicode="&#x423;" horiz-adv-x="1183" d="M72 61l53 68q84 -72 158 -72q30 0 57.5 12t47.5 27.5t46 50t42 60t46 76.5l-348 1151h92l264 -873q11 -36 23 -83t19 -76l6 -29h4q59 106 106 188l498 873h102l-723 -1241q-128 -218 -289 -218q-96 0 -204 86z" />
<glyph unicode="&#x424;" horiz-adv-x="1660" d="M121 639q0 163 64.5 299.5t175.5 227.5t259.5 141.5t315.5 50.5l35 178h88l-35 -178q267 0 423.5 -127t156.5 -352q0 -162 -64.5 -298.5t-175.5 -227t-259 -141t-314 -50.5l-37 -187h-88l36 187q-268 0 -424.5 126.5t-156.5 350.5zM213 637q0 -191 133.5 -292t372.5 -101 l199 1032q-143 -2 -269.5 -45t-224 -121t-154.5 -200t-57 -273zM807 244q143 2 269 45t224 121t154.5 200t56.5 273q0 191 -133 292t-372 101z" />
<glyph unicode="&#x425;" horiz-adv-x="1126" d="M-72 0l609 764l-281 670h94l187 -453l65 -160h4q51 74 117 156l369 457h110l-553 -684l322 -750h-94l-230 539l-61 153h-4q-43 -63 -113 -149l-436 -543h-105z" />
<glyph unicode="&#x426;" horiz-adv-x="1501" d="M102 0l279 1434h88l-262 -1352h854l262 1352h88l-262 -1352h158l-72 -369h-86l55 287h-1102z" />
<glyph unicode="&#x427;" horiz-adv-x="1220" d="M178 872q0 57 10 103l91 459h88l-88 -445q-11 -54 -11 -104q0 -110 62 -165.5t192 -55.5q120 0 237.5 41.5t192.5 89.5l125 639h88l-280 -1434h-88l123 623l16 67h-4q-214 -110 -416 -110q-169 0 -253.5 77t-84.5 215z" />
<glyph unicode="&#x428;" horiz-adv-x="2011" d="M100 0l281 1434h88l-264 -1352h655l264 1352h88l-264 -1352h656l264 1352h88l-281 -1434h-1575z" />
<glyph unicode="&#x429;" horiz-adv-x="2054" d="M102 0l279 1434h88l-262 -1352h655l262 1352h88l-262 -1352h656l262 1352h88l-262 -1352h176l-72 -369h-88l55 287h-1663z" />
<glyph unicode="&#x42a;" horiz-adv-x="1316" d="M156 1352l16 82h469l-121 -615h338q161 0 257.5 -82.5t96.5 -242.5q0 -145 -68.5 -260t-177 -174.5t-233.5 -59.5h-461l265 1352h-381zM377 82h354q163 0 276 110.5t113 296.5q0 117 -72 182.5t-192 65.5h-352z" />
<glyph unicode="&#x42b;" horiz-adv-x="1605" d="M100 0l281 1434h88l-121 -615h338q161 0 257.5 -82.5t96.5 -242.5q0 -145 -68.5 -260t-177 -174.5t-233.5 -59.5h-461zM205 82h354q163 0 276 110.5t113 296.5q0 117 -72 182.5t-192 65.5h-352zM1182 0l280 1434h88l-280 -1434h-88z" />
<glyph unicode="&#x42c;" horiz-adv-x="1144" d="M100 0l281 1434h88l-121 -615h338q161 0 257.5 -82.5t96.5 -242.5q0 -145 -68.5 -260t-177 -174.5t-233.5 -59.5h-461zM205 82h354q163 0 276 110.5t113 296.5q0 117 -72 182.5t-192 65.5h-352z" />
<glyph unicode="&#x42d;" horiz-adv-x="1464" d="M4 193l62 59q67 -86 189.5 -139.5t260.5 -53.5q165 0 321.5 81.5t269.5 223.5t155 314h-863l17 82h860q8 66 8 100q0 106 -33 199t-95.5 163.5t-160 111t-217.5 40.5q-127 0 -254 -42.5t-227 -119.5l-51 66q98 82 241.5 131t298.5 49q265 0 429.5 -166.5t164.5 -429.5 q0 -173 -72 -336.5t-191 -284t-279 -193.5t-328 -73q-146 0 -286 55t-220 163z" />
<glyph unicode="&#x42e;" horiz-adv-x="2121" d="M100 0l281 1434h88l-131 -674h280q41 193 167 354t301.5 252.5t359.5 91.5q261 0 425.5 -168t164.5 -430q0 -140 -46.5 -275.5t-128.5 -244t-187.5 -191.5t-230 -128.5t-249.5 -45.5q-173 0 -308.5 78.5t-210.5 219t-75 317.5q0 30 4 88h-282l-134 -678h-88zM692 590 q0 -233 138.5 -381t359.5 -148q139 0 276.5 64t242.5 170.5t170 255t65 307.5q0 226 -138.5 370t-359.5 144q-140 0 -277.5 -62.5t-242 -166.5t-169.5 -250t-65 -303z" />
<glyph unicode="&#x42f;" horiz-adv-x="1232" d="M-45 0l471 590q12 16 24 29t18 19l5 5l2 4q-109 30 -174 113t-65 203q0 88 29.5 170t92 151t148.5 107q93 43 272 43h400l-281 -1434h-88l125 635h-361l-510 -635h-108zM328 963q0 -112 67.5 -179t186.5 -67h368l123 635h-307q-136 0 -209 -29q-103 -43 -166 -141.5 t-63 -218.5z" />
<glyph unicode="&#x430;" horiz-adv-x="1040" d="M14 231q0 80 31 144t86.5 106t122.5 71.5t149.5 44.5t155.5 21.5t152 6.5h80q14 79 14 131q0 99 -53 154t-177 55q-78 0 -161.5 -27t-149.5 -72l-37 78q64 45 157.5 75t190.5 30q157 0 238.5 -70.5t81.5 -210.5q0 -52 -12 -117l-127 -651h-86l26 133q4 24 10.5 47.5 t10.5 35.5l4 11h-4q-20 -40 -54.5 -80.5t-83.5 -80.5t-116.5 -65.5t-140.5 -25.5q-131 0 -219.5 69t-88.5 187zM104 240q0 -78 58 -131.5t168 -53.5q78 0 152.5 40.5t130.5 105t96 142t57 155.5l10 47h-65q-607 0 -607 -305z" />
<glyph unicode="&#x431;" horiz-adv-x="1155" d="M102 412q0 155 47.5 324t143.5 294q63 82 148 142.5t202 113.5l430 195l25 -76l-436 -197q-200 -90 -295 -210t-146 -310h4q169 238 428 238q169 0 270 -98t101 -271q0 -108 -39 -212t-108.5 -186.5t-175.5 -133t-230 -50.5q-189 0 -279 114.5t-90 322.5zM193 360 q0 -145 80 -224t212 -79q124 0 228 70t161.5 181.5t57.5 234.5q0 143 -79.5 222t-205.5 79q-85 0 -167.5 -38t-145.5 -102t-102 -155t-39 -189z" />
<glyph unicode="&#x432;" horiz-adv-x="997" d="M61 0l199 1024h311q142 0 221.5 -54.5t79.5 -156.5q0 -96 -56.5 -170t-156.5 -106v-5q81 -18 128 -72t47 -136q0 -99 -60 -174.5t-150.5 -112.5t-193.5 -37h-369zM162 80h254q59 0 114.5 13.5t104.5 41.5t78.5 77.5t29.5 113.5q0 81 -64 122t-185 41h-252zM258 569h240 q54 0 103.5 15t90 44t64.5 75.5t24 105.5q0 137 -217 137h-231z" />
<glyph unicode="&#x433;" horiz-adv-x="815" d="M61 0l199 1024h582l-15 -78h-495l-185 -946h-86z" />
<glyph unicode="&#x434;" d="M-139 -246l63 326h113q255 243 363 782q0 4 0.5 6t1.5 5.5t1 5.5l29 145h578l-185 -944h144l-64 -326h-86l49 246h-874l-47 -246h-86zM150 80h589l168 866h-405l-13 -67q-110 -547 -339 -799z" />
<glyph unicode="&#x435;" horiz-adv-x="1120" d="M78 403q0 122 45 239t122.5 207t190 145t238.5 55q177 0 266.5 -99t89.5 -264q0 -69 -26 -160h-822q-12 -58 -12 -112q0 -155 93.5 -255t266.5 -100q183 0 342 129l33 -77q-67 -55 -169.5 -95.5t-205.5 -40.5q-200 0 -326 116.5t-126 311.5zM203 606h727q8 31 8 86 q0 137 -73 207t-191 70q-96 0 -186.5 -40t-167 -123.5t-117.5 -199.5z" />
<glyph unicode="&#x436;" horiz-adv-x="1411" d="M-68 0l463 535v4l-231 485h92l219 -459h184l89 459h86l-89 -459h181l381 459h108l-424 -506v-4l260 -514h-100l-242 485h-180l-94 -485h-86l94 485h-182l-416 -485h-113z" />
<glyph unicode="&#x437;" horiz-adv-x="878" d="M-25 121l60 63q37 -45 109.5 -86t164.5 -41q80 0 150.5 30t118 93.5t47.5 147.5q0 81 -61 122.5t-177 41.5h-133l14 79h121q120 0 206.5 61t86.5 177q0 79 -57 117.5t-154 38.5q-144 0 -260 -97l-47 70q144 111 321 111q129 0 209 -59.5t80 -170.5q0 -99 -55 -174.5 t-152 -105.5v-4q67 -19 108.5 -69.5t41.5 -133.5q0 -157 -116.5 -257t-281.5 -100q-114 0 -204 43.5t-140 102.5z" />
<glyph unicode="&#x438;" horiz-adv-x="1196" d="M61 0l199 1024h86l-141 -729l-37 -160h4q88 107 147 168l701 721h80l-199 -1024h-86l141 731l35 154h-4q-86 -101 -145 -162l-701 -723h-80z" />
<glyph unicode="&#x439;" horiz-adv-x="1196" d="M61 0l199 1024h86l-141 -729l-37 -160h4q88 107 147 168l701 721h80l-199 -1024h-86l141 731l35 154h-4q-86 -101 -145 -162l-701 -723h-80zM510 1356q0 29 12 78h84q-10 -35 -10 -64q0 -55 38 -85t95 -30q70 0 126 44t67 135h84q-11 -74 -40 -127.5t-69 -81t-82 -39.5 t-90 -12q-87 0 -151 50t-64 132z" />
<glyph unicode="&#x43a;" horiz-adv-x="960" d="M61 0l199 1024h86l-88 -453h176l420 453h115l-469 -498v-4l311 -522h-109l-280 492h-178l-97 -492h-86z" />
<glyph unicode="&#x43b;" horiz-adv-x="1046" d="M-78 -8l15 80q139 26 231 187.5t151 459.5l58 305h573l-198 -1024h-86l184 944h-401l-43 -225q-72 -368 -190.5 -540.5t-293.5 -186.5z" />
<glyph unicode="&#x43c;" horiz-adv-x="1445" d="M23 0l280 1024h78l215 -678l41 -149h4q49 81 98 149l480 678h86l-117 -1024h-86l80 711l32 176h-4q-30 -58 -96 -148l-442 -626h-88l-201 622q-13 36 -22.5 74t-12.5 58l-4 20h-4q-23 -127 -37 -176l-194 -711h-86z" />
<glyph unicode="&#x43d;" horiz-adv-x="1198" d="M61 0l199 1024h86l-88 -457h670l88 457h86l-199 -1024h-86l94 487h-669l-95 -487h-86z" />
<glyph unicode="&#x43e;" horiz-adv-x="1269" d="M78 420q0 127 53.5 244.5t140 201t201 133.5t232.5 50q201 0 326.5 -123.5t125.5 -315.5q0 -128 -54 -247t-141 -203t-201 -134.5t-231 -50.5q-201 0 -326.5 125t-125.5 320zM168 422q0 -159 101 -261t261 -102q99 0 196 43.5t172.5 116.5t122 176t46.5 213 q0 156 -101 256.5t-261 100.5q-136 0 -259.5 -72.5t-200.5 -199t-77 -271.5z" />
<glyph unicode="&#x43f;" horiz-adv-x="1177" d="M61 0l199 1024h821l-198 -1024h-86l184 944h-649l-185 -944h-86z" />
<glyph unicode="&#x440;" horiz-adv-x="1183" d="M-18 -410l278 1434h86l-20 -113q-4 -21 -10 -44t-10 -35l-5 -13h4q58 99 158.5 164.5t232.5 65.5q179 0 277 -108t98 -296q0 -144 -46.5 -270.5t-123.5 -213t-177 -136.5t-206 -50q-124 0 -214 59.5t-120 172.5h-4q-2 -48 -12 -101l-100 -516h-86zM233 383 q0 -140 72.5 -232t208.5 -92q83 0 165.5 40.5t150 113t109.5 184.5t42 244q0 151 -76 237.5t-209 86.5q-103 0 -192.5 -53.5t-147.5 -138t-90.5 -187t-32.5 -203.5z" />
<glyph unicode="&#x441;" horiz-adv-x="1105" d="M78 403q0 113 36 216t97.5 180t141 134t169.5 86.5t180 29.5q104 0 202.5 -37t158.5 -109l-62 -63q-49 58 -128.5 91.5t-165.5 33.5q-97 0 -193 -40.5t-173 -111.5t-125 -176.5t-48 -224.5q0 -160 103 -256.5t261 -96.5q101 0 199 39.5t172 108.5l33 -78 q-75 -69 -182 -111.5t-217 -42.5q-201 0 -330 116.5t-129 311.5z" />
<glyph unicode="&#x442;" horiz-adv-x="960" d="M113 944l14 80h864l-14 -80h-389l-185 -944h-86l185 944h-389z" />
<glyph unicode="&#x443;" horiz-adv-x="1060" d="M-143 -373l49 68q43 -43 119 -43q72 0 128.5 49t108.5 133l109 174l-230 1016h90l179 -831l18 -97h2q26 48 55 97l500 831h98l-776 -1270q-114 -184 -282 -184q-96 0 -168 57z" />
<glyph unicode="&#x444;" horiz-adv-x="1402" d="M82 424q0 255 187.5 431.5t475.5 191.5l76 387h86l-76 -387q208 -11 333.5 -128.5t125.5 -312.5q0 -123 -49.5 -235.5t-136.5 -197.5t-211.5 -138t-267.5 -58l-76 -387h-86l76 387q-207 11 -332 131t-125 316zM174 426q0 -167 99 -260t282 -105l174 900 q-148 -5 -274.5 -74t-203.5 -191.5t-77 -269.5zM641 61q108 3 209.5 46.5t178 115t123 172t46.5 211.5q0 161 -99 252.5t-284 102.5z" />
<glyph unicode="&#x445;" horiz-adv-x="942" d="M-72 0l478 543l-246 481h98l182 -367l27 -57h2q18 24 41 51l321 373h109l-428 -492l274 -532h-96l-211 416l-26 61h-4q-16 -26 -43 -55l-369 -422h-109z" />
<glyph unicode="&#x446;" horiz-adv-x="1206" d="M61 0l199 1024h86l-184 -944h637l184 944h86l-184 -944h143l-63 -326h-86l49 246h-867z" />
<glyph unicode="&#x447;" horiz-adv-x="987" d="M111 618q0 37 10 89l61 317h86l-61 -317q-8 -50 -8 -74q0 -73 43 -116.5t151 -43.5q94 0 182.5 29.5t141.5 66.5l88 455h86l-199 -1024h-86l78 401l18 70h-4q-63 -34 -152 -58t-149 -24q-148 0 -217 62.5t-69 166.5z" />
<glyph unicode="&#x448;" horiz-adv-x="1597" d="M61 0l199 1024h86l-184 -944h491l185 944h86l-185 -944h492l184 944h86l-198 -1024h-1242z" />
<glyph unicode="&#x449;" horiz-adv-x="1638" d="M61 0l199 1024h86l-184 -944h491l185 944h86l-185 -944h492l184 944h86l-184 -944h143l-63 -326h-86l49 246h-1299z" />
<glyph unicode="&#x44a;" horiz-adv-x="1046" d="M84 946l14 78h375l-80 -410h223q60 0 110.5 -11t97 -37.5t73.5 -78.5t27 -125q0 -157 -111 -259.5t-295 -102.5h-330l185 946h-289zM289 80h231q137 0 224 75t87 199q0 90 -51 135.5t-166 45.5h-235z" />
<glyph unicode="&#x44b;" horiz-adv-x="1298" d="M61 0l199 1024h86l-80 -410h223q60 0 110.5 -11t97 -37.5t73.5 -78.5t27 -125q0 -157 -111 -259.5t-295 -102.5h-330zM162 80h231q137 0 224.5 75t87.5 199q0 89 -51.5 135t-166.5 46h-235zM918 0l198 1024h86l-198 -1024h-86z" />
<glyph unicode="&#x44c;" horiz-adv-x="919" d="M61 0l199 1024h86l-80 -410h223q60 0 110.5 -11t97 -37.5t73.5 -78.5t27 -125q0 -157 -111 -259.5t-295 -102.5h-330zM162 80h231q137 0 224.5 75t87.5 199q0 89 -51.5 135t-166.5 46h-235z" />
<glyph unicode="&#x44d;" horiz-adv-x="1099" d="M-6 135l49 70q48 -67 132.5 -106.5t184.5 -39.5q181 0 324 117.5t190 294.5h-561l15 80h563q4 40 4 65q0 162 -102.5 255.5t-257.5 93.5q-184 0 -332 -129l-51 65q71 67 176.5 107.5t212.5 40.5q195 0 320.5 -121.5t125.5 -321.5q0 -118 -48.5 -232t-130.5 -202.5 t-201.5 -142.5t-252.5 -54q-107 0 -204 41t-156 119z" />
<glyph unicode="&#x44e;" horiz-adv-x="1611" d="M61 0l199 1024h86l-92 -473h221q47 212 218.5 355t373.5 143q192 0 312 -123.5t120 -315.5q0 -128 -52.5 -247t-137 -203t-194.5 -134.5t-222 -50.5q-192 0 -312 125t-120 320q0 33 2 51h-223l-93 -471h-86zM551 422q0 -159 95 -261t247 -102q96 0 189.5 43.5 t165.5 116.5t116.5 176t44.5 213q0 156 -95.5 256.5t-246.5 100.5q-97 0 -191 -43.5t-165.5 -115.5t-115.5 -173.5t-44 -210.5z" />
<glyph unicode="&#x44f;" horiz-adv-x="985" d="M-39 0l318 362l55 62v4q-76 13 -131.5 79t-55.5 169q0 159 105.5 253.5t284.5 94.5h352l-199 -1024h-86l80 414h-250l-360 -414h-113zM240 678q0 -89 50 -137.5t150 -48.5h260l88 454h-251q-135 0 -216 -68.5t-81 -199.5z" />
<glyph unicode="&#x450;" horiz-adv-x="1120" d="M78 403q0 122 45 239t122.5 207t190 145t238.5 55q177 0 266.5 -99t89.5 -264q0 -69 -26 -160h-822q-12 -58 -12 -112q0 -155 93.5 -255t266.5 -100q183 0 342 129l33 -77q-67 -55 -169.5 -95.5t-205.5 -40.5q-200 0 -326 116.5t-126 311.5zM203 606h727q8 31 8 86 q0 137 -73 207t-191 70q-96 0 -186.5 -40t-167 -123.5t-117.5 -199.5zM592 1436h106l93 -228h-82z" />
<glyph unicode="&#x451;" horiz-adv-x="1120" d="M78 403q0 122 45 239t122.5 207t190 145t238.5 55q177 0 266.5 -99t89.5 -264q0 -69 -26 -160h-822q-12 -58 -12 -112q0 -155 93.5 -255t266.5 -100q183 0 342 129l33 -77q-67 -55 -169.5 -95.5t-205.5 -40.5q-200 0 -326 116.5t-126 311.5zM203 606h727q8 31 8 86 q0 137 -73 207t-191 70q-96 0 -186.5 -40t-167 -123.5t-117.5 -199.5zM539 1284l28 150h95l-29 -150h-94zM819 1284l29 150h94l-29 -150h-94z" />
<glyph unicode="&#x452;" horiz-adv-x="1200" d="M61 0l230 1180h-135l16 77h133l35 177h86l-35 -177h490l-17 -77h-487l-82 -428l-27 -95h4q22 43 63.5 90.5t101.5 93.5t143.5 75.5t171.5 29.5q140 0 212 -66.5t72 -191.5q0 -59 -16 -141l-115 -600q-19 -97 -57.5 -169.5t-81 -110.5t-95 -61.5t-90 -29.5t-75.5 -6 q-13 0 -25.5 1.5t-18.5 2.5l-7 2l16 78q18 -4 45 -4q30 0 58.5 5t68.5 23.5t71.5 49t60.5 87t44 132.5l109 569q18 95 18 156q0 95 -52.5 142.5t-143.5 47.5q-93 0 -182.5 -39.5t-159.5 -105.5t-120 -154.5t-69 -185.5l-72 -377h-86z" />
<glyph unicode="&#x453;" horiz-adv-x="815" d="M61 0l199 1024h582l-15 -78h-495l-185 -946h-86zM502 1206l182 228h123l-207 -228h-98z" />
<glyph unicode="&#x454;" horiz-adv-x="1101" d="M76 412q0 120 50 236t134 204.5t203 142.5t250 54q101 0 194 -37t150 -109l-58 -65q-48 60 -128.5 93.5t-168.5 33.5q-176 0 -320 -115.5t-196 -286.5h568l-15 -80h-571q-4 -46 -4 -69q0 -170 103.5 -262.5t262.5 -92.5q98 0 196.5 39t170.5 107l41 -72 q-77 -71 -189 -114.5t-225 -43.5q-196 0 -322 120t-126 317z" />
<glyph unicode="&#x455;" horiz-adv-x="880" d="M-2 125l55 61q48 -58 127 -92.5t166 -34.5q72 0 135 22t105.5 70t42.5 113q0 50 -26 89t-68 64t-92.5 47.5t-100.5 47.5t-92 56t-68 80.5t-26 113.5q0 91 54.5 158t137.5 98t180 31q90 0 167.5 -29t125.5 -86l-57 -62q-87 93 -238 93q-51 0 -98.5 -11.5t-89.5 -35 t-67 -63.5t-25 -91t26 -90t68 -64t92 -47.5t100.5 -47t92.5 -54.5t68 -78t26 -111q0 -132 -107 -214.5t-268 -82.5q-100 0 -193 38t-153 112z" />
<glyph unicode="&#x456;" horiz-adv-x="442" d="M61 0l201 1024h86l-201 -1024h-86zM303 1284l31 150h102l-30 -150h-103z" />
<glyph unicode="&#x457;" horiz-adv-x="442" d="M61 0l199 1024h86l-199 -1024h-86zM166 1284l29 150h94l-29 -150h-94zM446 1284l29 150h94l-28 -150h-95z" />
<glyph unicode="&#x458;" horiz-adv-x="442" d="M-309 -416l16 80q12 -4 45 -4q29 0 57.5 5t68 24t71 49t60.5 87t44 132l207 1067h86l-207 -1065q-19 -97 -55.5 -169.5t-76.5 -111.5t-89 -62t-84.5 -29.5t-71.5 -6.5q-51 0 -71 4zM301 1284l29 150h102l-29 -150h-102z" />
<glyph unicode="&#x459;" horiz-adv-x="1441" d="M-51 -8l14 80q271 50 383 647l57 305h463l-80 -410h226q305 0 305 -254q0 -163 -115.5 -261.5t-292.5 -98.5h-327l184 944h-291l-43 -225q-72 -368 -190 -540.5t-293 -186.5zM682 80h231q133 0 222.5 71t89.5 201q0 91 -51 137t-166 46h-236z" />
<glyph unicode="&#x45a;" horiz-adv-x="1591" d="M61 0l199 1024h86l-82 -422h588l82 422h86l-82 -422h213q59 0 111.5 -11.5t100.5 -37.5t76.5 -75t28.5 -116q0 -161 -110.5 -261.5t-292.5 -100.5h-330l101 522h-588l-101 -522h-86zM836 80h231q138 0 223.5 72t85.5 208q0 162 -231 162h-223z" />
<glyph unicode="&#x45b;" horiz-adv-x="1200" d="M61 0l230 1180h-135l16 77h133l35 177h86l-35 -177h490l-17 -77h-487l-82 -428l-27 -95h4q22 43 63.5 90.5t101.5 93.5t143.5 75.5t171.5 29.5q140 0 212 -66.5t72 -191.5q0 -59 -16 -141l-105 -547h-86l99 516q18 95 18 156q0 95 -52.5 142.5t-143.5 47.5 q-93 0 -182.5 -39.5t-159.5 -105.5t-120 -154.5t-69 -185.5l-72 -377h-86z" />
<glyph unicode="&#x45c;" horiz-adv-x="960" d="M61 0l199 1024h86l-88 -453h176l420 453h115l-469 -498v-4l311 -522h-109l-280 492h-178l-97 -492h-86zM547 1206l182 228h123l-207 -228h-98z" />
<glyph unicode="&#x45d;" horiz-adv-x="1196" d="M61 0l199 1024h86l-141 -729l-37 -160h4q88 107 147 168l701 721h80l-199 -1024h-86l141 731l35 154h-4q-86 -101 -145 -162l-701 -723h-80zM616 1436h107l92 -228h-82z" />
<glyph unicode="&#x45e;" horiz-adv-x="1060" d="M-143 -373l49 68q43 -43 119 -43q72 0 128.5 49t108.5 133l109 174l-230 1016h90l179 -831l18 -97h2q26 48 55 97l500 831h98l-776 -1270q-114 -184 -282 -184q-96 0 -168 57zM440 1356q0 25 13 78h84q-11 -38 -11 -64q0 -55 38 -85t95 -30q70 0 126 44t67 135h84 q-11 -74 -40 -127.5t-69 -81t-82 -39.5t-90 -12q-87 0 -151 50t-64 132z" />
<glyph unicode="&#x45f;" horiz-adv-x="1126" d="M61 0l199 1024h86l-184 -944h598l184 944h86l-199 -1024h-342l-49 -246h-86l49 246h-342z" />
<glyph unicode="&#x462;" horiz-adv-x="1357" d="M123 1106l16 82h389l50 246h88l-50 -246h416l-16 -82h-416l-55 -287h344q162 0 264 -87.5t102 -242.5q0 -94 -38.5 -182.5t-104 -156.5t-160.5 -109t-200 -41h-455l215 1106h-389zM401 82h349q172 0 292.5 118.5t120.5 291.5q0 116 -79 180.5t-207 64.5h-349z" />
<glyph unicode="&#x463;" horiz-adv-x="983" d="M55 946l17 78h247l80 410h86l-79 -410h348l-17 -78h-348l-63 -332h225q46 0 86 -6.5t81 -23.5t70 -44.5t47.5 -73.5t18.5 -106q0 -155 -109.5 -257.5t-293.5 -102.5h-332l184 946h-248zM221 80h232q138 0 223.5 75.5t85.5 200.5q0 89 -51 134t-166 45h-236z" />
<glyph unicode="&#x472;" horiz-adv-x="1691" d="M131 590q0 172 74.5 333.5t194.5 278t278 186.5t319 70q270 0 440.5 -168t170.5 -430q0 -175 -75 -339.5t-195.5 -283.5t-278.5 -190.5t-318 -71.5q-270 0 -440 172.5t-170 442.5zM223 590q0 -233 144.5 -382t373.5 -149q164 0 322 81.5t274 226t158 319.5h-1266 q-6 -50 -6 -96zM246 768h1263q7 51 7 90q0 226 -145 371t-374 145q-166 0 -323 -79t-271.5 -218.5t-156.5 -308.5z" />
<glyph unicode="&#x473;" horiz-adv-x="1269" d="M78 420q0 127 53.5 244.5t140 201t201 133.5t232.5 50q201 0 326.5 -123.5t125.5 -315.5q0 -128 -54 -247t-141 -203t-201 -134.5t-231 -50.5q-201 0 -326.5 125t-125.5 320zM168 422q0 -159 101 -261t261 -102q171 0 321.5 120t197.5 298h-879q-2 -18 -2 -55zM184 557 h879q4 32 4 51q0 156 -101 256.5t-261 100.5q-174 0 -324 -117t-197 -291z" />
<glyph unicode="&#x474;" horiz-adv-x="1390" d="M209 1434h90l205 -1160l20 -172h4q53 104 90 172l521 965q27 49 46.5 79.5t43.5 53.5t43.5 34.5t53.5 18t64.5 8t86.5 1.5h49l-17 -84h-43q-11 0 -33 0.5t-29.5 0t-25 -1.5t-24 -3.5t-20.5 -6.5t-21.5 -11.5t-19.5 -17.5t-21.5 -23.5t-21 -31.5t-23.5 -41l-666 -1214h-96 z" />
<glyph unicode="&#x475;" horiz-adv-x="1093" d="M139 1024h86l160 -803l12 -110h4q31 61 58 110l340 625q57 104 115.5 141t177.5 37h43l-17 -84h-43q-76 0 -115.5 -24t-82.5 -101l-451 -815h-82z" />
<glyph unicode="&#x48a;" horiz-adv-x="1581" d="M100 0l281 1434h88l-217 -1117q-6 -32 -17 -76t-19 -72l-7 -28h4q101 121 160 187l1024 1106h82l-265 -1352h185l-13 -68l-184 -301h-90l160 287h-162l217 1116q6 32 17 76l18 72l8 28h-4q-95 -114 -154 -180l-1030 -1112h-82zM725 1686q0 28 12 77h84q-10 -35 -10 -63 q0 -55 38 -85t95 -30q70 0 126 43.5t67 134.5h84q-11 -74 -40 -127.5t-69 -81t-82 -39.5t-90 -12q-87 0 -151 50.5t-64 132.5z" />
<glyph unicode="&#x48b;" horiz-adv-x="1228" d="M61 0l199 1024h86l-141 -729l-37 -160h4q88 107 147 168l701 721h80l-185 -946h146l-12 -68l-152 -256h-84l133 246h-131l141 731l35 154h-4q-86 -101 -145 -162l-701 -723h-80zM500 1356q0 29 12 78h84q-10 -35 -10 -64q0 -55 38 -85t95 -30q70 0 125.5 44t66.5 135h84 q-9 -60 -30 -106.5t-48 -75t-62 -46.5t-69 -25t-71 -7q-87 0 -151 50t-64 132z" />
<glyph unicode="&#x48c;" horiz-adv-x="1316" d="M137 1200l15 82h335l50 254h88l-50 -254h349l-15 -82h-348l-72 -360h365q163 0 263 -90.5t100 -249.5q0 -96 -38.5 -187t-104.5 -160t-160 -111t-199 -42h-475l233 1200h-336zM342 82h369q169 0 291 121.5t122 290.5q0 128 -76.5 196t-203.5 68h-371z" />
<glyph unicode="&#x48d;" horiz-adv-x="1009" d="M82 946l16 78h248l80 410h86l-80 -410h348l-16 -78h-348l-64 -332h226q46 0 86 -6.5t81 -23.5t70 -44.5t47.5 -73.5t18.5 -106q0 -155 -110 -257.5t-294 -102.5h-332l185 946h-248zM248 80h231q138 0 223.5 75.5t85.5 200.5q0 89 -51 134t-166 45h-235z" />
<glyph unicode="&#x48e;" horiz-adv-x="1257" d="M100 0l281 1434h448q143 0 230 -50q74 -42 116 -116t42 -170q0 -129 -55.5 -236.5t-149.5 -175.5l118 -168l-65 -47l-121 174q-6 -3 -16 -7t-13 -5q-95 -39 -206 -39h-404l-117 -594h-88zM322 676h378q102 0 181 33l14 6l-141 205l65 47l146 -211q74 56 116.5 143.5 t42.5 198.5q0 121 -78 187.5t-217 66.5h-376z" />
<glyph unicode="&#x48f;" horiz-adv-x="1214" d="M-18 -410l278 1434h86l-20 -113q-4 -21 -10 -44t-10 -35l-5 -13h4q58 99 158.5 164.5t232.5 65.5q179 0 277 -108t98 -296q0 -164 -59 -301.5t-160 -230.5l109 -133l-62 -54l-111 135q-128 -86 -270 -86q-124 0 -214 59.5t-120 172.5h-4q-2 -48 -12 -101l-100 -516h-86z M233 383q0 -140 72.5 -232t208.5 -92q114 0 221 72l-133 166l62 53l135 -168q83 78 132.5 196t49.5 263q0 151 -76 237.5t-209 86.5q-103 0 -192.5 -53.5t-147.5 -138t-90.5 -187t-32.5 -203.5z" />
<glyph unicode="&#x490;" horiz-adv-x="983" d="M102 0l279 1434h639l31 163h86l-47 -245h-637l-263 -1352h-88z" />
<glyph unicode="&#x491;" horiz-adv-x="794" d="M61 0l199 1024h479l29 143h82l-43 -221h-475l-185 -946h-86z" />
<glyph unicode="&#x492;" horiz-adv-x="1009" d="M115 672l16 82h133l133 680h723l-16 -82h-635l-117 -598h334l-16 -82h-334l-131 -672h-88l131 672h-133z" />
<glyph unicode="&#x493;" horiz-adv-x="825" d="M25 473l14 78h131l92 473h582l-15 -78h-495l-78 -395h276l-14 -78h-276l-92 -473h-87l93 473h-131z" />
<glyph unicode="&#x494;" horiz-adv-x="1191" d="M102 0l279 1434h723l-17 -82h-634l-113 -578q157 80 340 80q178 0 271 -91.5t93 -303.5q0 -102 -20.5 -209t-68 -215.5t-116.5 -192.5t-174.5 -137t-232.5 -53l17 84q105 2 192.5 51.5t144 126t96 174t56 191.5t16.5 182q0 71 -12.5 123.5t-43.5 97t-90.5 67.5t-145.5 23 q-162 0 -338 -88l-134 -684h-88z" />
<glyph unicode="&#x495;" horiz-adv-x="966" d="M61 0l199 1024h580l-17 -80h-493l-84 -436q133 65 266 65q81 0 140.5 -25.5t92 -71t47.5 -101t15 -123.5q0 -192 -106 -382.5t-289 -289.5l-43 70q109 58 191 165t120.5 221.5t38.5 219.5q0 233 -223 233q-138 0 -269 -75l-80 -414h-86z" />
<glyph unicode="&#x496;" horiz-adv-x="1785" d="M-68 0l615 754v4l-307 676h100l285 -639h219l125 639h88l-125 -639h205l534 639h115l-574 -676v-4l287 -672h166l-72 -369h-86l56 287h-129l-299 713h-220l-139 -713h-88l139 713h-206l-578 -713h-111z" />
<glyph unicode="&#x497;" horiz-adv-x="1492" d="M-68 0l463 535v4l-231 485h92l219 -459h184l89 459h86l-89 -459h181l381 459h108l-424 -506v-4l219 -434h148l-64 -326h-86l49 246h-106l-242 485h-180l-94 -485h-86l94 485h-182l-416 -485h-113z" />
<glyph unicode="&#x498;" horiz-adv-x="1075" d="M-10 156l59 61q46 -65 128 -110.5t202 -45.5q121 0 223.5 48.5t163.5 137t61 197.5q0 127 -82.5 191.5t-212.5 64.5h-182l17 82h145q95 0 184 42t148 122.5t59 179.5q0 107 -69.5 176.5t-208.5 69.5q-179 0 -334 -117l-43 70q181 133 366 133t283 -86t98 -237 q0 -143 -81.5 -242t-213.5 -141v-4q220 -67 220 -295q0 -126 -64 -231.5t-170.5 -169t-234.5 -75.5l-52 -264h-86l49 264q-110 5 -209.5 49.5t-162.5 129.5z" />
<glyph unicode="&#x499;" horiz-adv-x="882" d="M-25 121l60 63q37 -45 109.5 -86t164.5 -41q80 0 150.5 30t118 93.5t47.5 147.5q0 81 -61 122.5t-177 41.5h-133l14 79h121q120 0 206.5 61t86.5 177q0 79 -57 117.5t-154 38.5q-144 0 -260 -97l-47 70q144 111 321 111q129 0 209 -59.5t80 -170.5q0 -99 -55 -174.5 t-152 -105.5v-4q67 -19 108.5 -69.5t41.5 -133.5q0 -151 -109 -250t-266 -107l-41 -221h-86l43 226q-94 11 -168 51t-115 90z" />
<glyph unicode="&#x49a;" horiz-adv-x="1251" d="M100 0l281 1434h88l-125 -639h258l543 639h106l-575 -678v-4l289 -670h165l-71 -369h-86l55 287h-125l-303 713h-272l-140 -713h-88z" />
<glyph unicode="&#x49b;" horiz-adv-x="1024" d="M61 0l199 1024h86l-88 -453h176l420 453h115l-469 -498v-4l264 -442h125l-64 -326h-86l49 246h-86l-280 492h-178l-97 -492h-86z" />
<glyph unicode="&#x49c;" horiz-adv-x="1282" d="M100 0l281 1434h88l-125 -639h176l51 266h84l-51 -266h125l524 639h117l-575 -693v-4l323 -737h-96l-309 713h-125l-51 -267h-84l51 267h-176l-140 -713h-88z" />
<glyph unicode="&#x49d;" horiz-adv-x="1083" d="M61 0l199 1024h86l-88 -453h143l43 224h80l-43 -224h78l416 453h117l-469 -500v-4l311 -520h-105l-284 492h-78l-45 -228h-80l45 228h-143l-97 -492h-86z" />
<glyph unicode="&#x49e;" horiz-adv-x="1173" d="M109 1092l14 82h217l51 260h88l-51 -260h229l-14 -82h-231l-58 -297h258l543 639h107l-576 -678v-4l324 -752h-97l-303 713h-272l-139 -713h-88l213 1092h-215z" />
<glyph unicode="&#x49f;" horiz-adv-x="962" d="M61 0l211 1085h-129l17 78h129l53 271h86l-53 -271h278l-16 -78h-279l-90 -464h174l414 403h117l-455 -442v-4l291 -578h-98l-269 541h-188l-107 -541h-86z" />
<glyph unicode="&#x4a0;" horiz-adv-x="1452" d="M178 1352l17 82h561l-125 -639h266l526 639h115l-575 -689v-4l325 -741h-98l-309 713h-267l-139 -713h-88l264 1352h-473z" />
<glyph unicode="&#x4a1;" horiz-adv-x="1087" d="M84 946l14 78h375l-88 -453h176l420 453h115l-467 -498v-4l309 -522h-107l-282 492h-178l-97 -492h-86l185 946h-289z" />
<glyph unicode="&#x4a2;" horiz-adv-x="1564" d="M102 0l279 1434h88l-131 -674h909l131 674h88l-262 -1352h176l-71 -369h-86l55 287h-178l131 678h-909l-132 -678h-88z" />
<glyph unicode="&#x4a3;" horiz-adv-x="1230" d="M61 0l199 1024h86l-90 -457h670l90 457h86l-184 -944h153l-63 -326h-86l49 246h-154l94 487h-669l-95 -487h-86z" />
<glyph unicode="&#x4a4;" horiz-adv-x="1875" d="M100 0l281 1434h88l-131 -674h807l131 674h723l-17 -82h-634l-265 -1352h-88l133 678h-806l-134 -678h-88z" />
<glyph unicode="&#x4a5;" horiz-adv-x="1447" d="M61 0l199 1024h86l-88 -457h588l88 457h541l-15 -78h-454l-185 -946h-86l94 487h-587l-95 -487h-86z" />
<glyph unicode="&#x4a6;" horiz-adv-x="2025" d="M102 0l279 1434h936l-125 -639q155 79 336 79q176 0 270 -93.5t94 -309.5q0 -104 -20.5 -213t-68 -218.5t-116.5 -195t-174.5 -139t-232.5 -53.5l16 84q88 1 164.5 36.5t130.5 94.5t95.5 133t66 157t37 162.5t12.5 153.5q0 73 -13 127t-44 99.5t-90.5 69.5t-145.5 24 q-153 0 -335 -91l-136 -702h-88l262 1352h-759l-263 -1352h-88z" />
<glyph unicode="&#x4a7;" horiz-adv-x="1595" d="M61 0l199 1024h698l-92 -477q134 67 275 67q160 0 231.5 -91.5t71.5 -243.5q0 -200 -107 -393t-293 -306l-43 68q157 95 256 270.5t99 357.5q0 254 -236 254q-141 0 -274 -79l-86 -451h-86l182 944h-526l-183 -944h-86z" />
<glyph unicode="&#x4a8;" horiz-adv-x="1869" d="M137 584q0 113 24 215.5t64.5 183t96 151t116.5 121.5t128.5 92t130 66t122.5 39l27 -78q-81 -19 -163.5 -59.5t-165 -109.5t-146 -155.5t-103 -208t-39.5 -257.5q0 -146 60 -264t181 -189.5t284 -71.5q132 0 280 52q-139 85 -214 228.5t-75 328.5q0 132 38 253.5 t103 213t148 160t176.5 104t184.5 35.5q181 0 292 -118.5t111 -330.5q0 -138 -44.5 -271t-122.5 -243.5t-178.5 -201t-217.5 -156.5q102 -31 227 -31h152l-15 -82h-137q-189 0 -332 61q-195 -86 -376 -86q-188 0 -329.5 80.5t-214.5 217.5t-73 311zM838 668 q0 -170 75.5 -306.5t221.5 -209.5q158 77 285 198.5t206.5 288t79.5 344.5q0 177 -90.5 272t-220.5 95q-69 0 -143.5 -26t-148.5 -82t-133 -134t-95.5 -192.5t-36.5 -247.5z" />
<glyph unicode="&#x4a9;" horiz-adv-x="1581" d="M90 485q0 109 39.5 206t105.5 166.5t146 118t166 71.5l24 -82q-71 -20 -137 -58t-124.5 -96t-94 -143.5t-35.5 -186.5q0 -185 120.5 -303.5t307.5 -118.5q141 0 289 52q-122 76 -193 198.5t-71 288.5q0 122 59 225.5t164 164.5t231 61q86 0 155.5 -31t113 -84t67 -120 t23.5 -142q0 -174 -97 -318t-259 -241q105 -31 219 -31h92l-17 -82h-90q-167 0 -303 61q-195 -86 -391 -86q-156 0 -273.5 69.5t-177 184t-59.5 256.5zM723 598q0 -156 71.5 -269t196.5 -177q163 81 264 216t101 304q0 53 -15.5 102.5t-47 93.5t-88 70.5t-130.5 26.5 q-63 0 -125 -24.5t-113 -69.5t-82.5 -116.5t-31.5 -156.5z" />
<glyph unicode="&#x4aa;" horiz-adv-x="1474" d="M133 586q0 140 46.5 274t128.5 240.5t188.5 188t234 125.5t256.5 44q140 0 274.5 -44t217.5 -136l-62 -64q-76 76 -189 118t-241 42q-145 0 -284.5 -62t-244.5 -167t-169 -252t-64 -307q0 -230 141 -378.5t371 -148.5q137 0 277 52t246 143l51 -68q-99 -88 -250.5 -146.5 t-298.5 -64.5l-49 -262h-86l49 264q-252 20 -397.5 187.5t-145.5 421.5z" />
<glyph unicode="&#x4ab;" horiz-adv-x="1107" d="M80 403q0 141 55.5 264.5t144.5 205.5t200.5 129t224.5 47q104 0 202 -37t158 -109l-61 -63q-49 58 -129 91.5t-166 33.5q-97 0 -193 -40.5t-173 -111.5t-125 -176.5t-48 -224.5q0 -160 103.5 -256.5t261.5 -96.5q101 0 198.5 39.5t171.5 108.5l33 -78 q-75 -69 -182 -111.5t-217 -42.5h-2l-41 -221h-86l43 228q-168 24 -270.5 136t-102.5 285z" />
<glyph unicode="&#x4ac;" horiz-adv-x="1216" d="M172 1352l16 82h1158l-17 -82h-534l-246 -1270h176l-72 -369h-86l56 287h-179l263 1352h-535z" />
<glyph unicode="&#x4ad;" horiz-adv-x="964" d="M113 944l16 80h864l-16 -80h-389l-168 -864h153l-63 -326h-86l49 246h-154l183 944h-389z" />
<glyph unicode="&#x4ae;" horiz-adv-x="1128" d="M197 1434h94l227 -566l60 -161h4q63 87 118 159l449 568h108l-645 -813l-123 -621h-88l123 623z" />
<glyph unicode="&#x4af;" horiz-adv-x="1009" d="M139 1024h86l172 -735l19 -105h4q26 54 59 105l459 735h96l-590 -944l-96 -490h-82l96 490z" />
<glyph unicode="&#x4b0;" horiz-adv-x="1128" d="M197 1434h94l229 -566l58 -161h4q61 91 118 161l451 566h106l-643 -811h273l-17 -80h-272l-106 -543h-89l107 543h-270l16 80h270z" />
<glyph unicode="&#x4b1;" horiz-adv-x="1007" d="M113 0l16 80h233l-219 944h86l170 -735l19 -105h4q26 54 59 105l453 735h96l-586 -944h234l-16 -80h-234l-80 -410h-82l80 410h-233z" />
<glyph unicode="&#x4b2;" horiz-adv-x="1214" d="M-72 0l609 764l-281 670h94l187 -453l65 -160h4q51 74 117 156l369 457h110l-553 -684l287 -668h160l-72 -369h-86l55 287h-116l-230 539l-61 153h-4q-43 -63 -113 -149l-436 -543h-105z" />
<glyph unicode="&#x4b3;" horiz-adv-x="1005" d="M-72 0l478 543l-246 481h98l182 -367l27 -57h2q18 24 41 51l321 373h109l-428 -492l233 -452h123l-63 -326h-86l49 246h-78l-211 416l-26 61h-4q-16 -26 -43 -55l-369 -422h-109z" />
<glyph unicode="&#x4b4;" horiz-adv-x="1796" d="M178 1352l17 82h1034l-17 -82h-473l-245 -1270h854l262 1352h88l-262 -1352h176l-72 -369h-86l55 287h-1120l262 1352h-473z" />
<glyph unicode="&#x4b5;" horiz-adv-x="1456" d="M113 944l16 80h848l-16 -80h-381l-168 -864h637l184 944h86l-184 -944h143l-64 -326h-86l50 246h-867l183 944h-381z" />
<glyph unicode="&#x4b6;" horiz-adv-x="1263" d="M178 872q0 57 10 103l91 459h88l-88 -445q-11 -54 -11 -104q0 -110 62 -165.5t192 -55.5q120 0 237.5 41.5t192.5 89.5l125 639h88l-264 -1352h178l-71 -369h-86l55 287h-180l123 623l16 67h-4q-214 -110 -416 -110q-169 0 -253.5 77t-84.5 215z" />
<glyph unicode="&#x4b7;" horiz-adv-x="1021" d="M111 618q0 37 10 89l61 317h86l-61 -317q-8 -50 -8 -74q0 -73 43 -116.5t151 -43.5q94 0 182.5 29.5t141.5 66.5l88 455h86l-184 -944h172l-64 -326h-86l49 246h-172l78 401l18 70h-4q-63 -34 -152 -58t-149 -24q-148 0 -217 62.5t-69 166.5z" />
<glyph unicode="&#x4b8;" horiz-adv-x="1218" d="M176 872q0 57 10 103l90 459h89l-89 -445q-10 -49 -10 -104q0 -109 59 -164.5t183 -56.5l59 299h84l-59 -295q104 11 199.5 48.5t158.5 78.5l125 639h88l-280 -1434h-88l123 623l16 67h-4q-178 -92 -355 -108l-45 -234h-84l46 232q-159 4 -237.5 81t-78.5 211z" />
<glyph unicode="&#x4b9;" horiz-adv-x="987" d="M111 618q0 37 10 89l61 317h86l-61 -317q-8 -50 -8 -74q0 -155 180 -160l51 260h80l-51 -256q147 16 258 92l88 455h86l-199 -1024h-86l78 401l18 70h-4q-51 -28 -122.5 -50t-133.5 -30l-32 -168h-80l32 166q-131 7 -191 68.5t-60 160.5z" />
<glyph unicode="&#x4ba;" horiz-adv-x="1230" d="M100 0l281 1434h88l-102 -529l-21 -71h4q77 40 189.5 74t234.5 34q165 0 248.5 -74.5t83.5 -201.5q0 -54 -12 -119l-107 -547h-88l105 532q14 68 14 111q0 108 -61 161.5t-189 53.5q-121 0 -242 -39.5t-194 -85.5l-144 -733h-88z" />
<glyph unicode="&#x4bb;" horiz-adv-x="1198" d="M61 0l279 1434h86l-111 -580l-26 -94h4q22 43 63.5 90.5t101 93.5t143 75.5t171.5 29.5q140 0 212.5 -66.5t72.5 -191.5q0 -55 -17 -142l-125 -649h-86l119 618q19 101 19 156q0 95 -53 143t-144 48q-93 0 -182.5 -39.5t-159 -106t-119.5 -155t-69 -185.5l-93 -479h-86z " />
<glyph unicode="&#x4bc;" horiz-adv-x="1720" d="M172 977q0 66 22 137t64 170h94q-90 -198 -90 -305q0 -145 146 -145h18q38 128 108.5 239.5t166 198t221.5 136.5t264 50q219 0 344 -122.5t125 -352.5q0 -83 -29 -231h-1126q-18 -82 -20 -163t12.5 -159.5t51 -145t91.5 -117t139 -79.5t189 -29q131 0 264 46t235 139 l49 -74q-91 -84 -235 -139.5t-307 -55.5q-274 0 -428 159t-154 429q0 89 19 189h-17q-101 0 -159 61t-58 164zM522 834h1026q15 88 15 145q0 82 -21.5 151.5t-65.5 125t-118.5 87t-173.5 31.5q-225 0 -407 -151t-255 -389z" />
<glyph unicode="&#x4bd;" horiz-adv-x="1327" d="M113 700q0 108 67 232h90q-73 -114 -73 -221q0 -54 26 -78.5t78 -24.5h16q61 190 214 315.5t350 125.5q177 0 266.5 -99t89.5 -264q0 -66 -27 -160h-821q-12 -58 -12 -112q0 -155 93.5 -255t266.5 -100q183 0 342 129l33 -77q-67 -55 -169.5 -95.5t-205.5 -40.5 q-200 0 -326 116.5t-126 311.5q0 55 10 123h-4q-178 0 -178 174zM410 606h727q8 31 8 86q0 137 -73 207t-191 70q-96 0 -186.5 -40t-167 -123.5t-117.5 -199.5z" />
<glyph unicode="&#x4be;" horiz-adv-x="1720" d="M172 977q0 66 22 137t64 170h94q-90 -198 -90 -305q0 -145 146 -145h18q38 128 108.5 239.5t166 198t221.5 136.5t264 50q219 0 344 -122.5t125 -352.5q0 -83 -29 -231h-1126q-18 -82 -20 -163t12.5 -159.5t51 -145t91.5 -117t139 -79.5t189 -29q131 0 264 46t235 139 l49 -74q-91 -84 -235 -139.5t-307 -55.5h-15l-49 -262h-86l51 269q-229 28 -356 182t-127 399q0 89 19 189h-17q-101 0 -159 61t-58 164zM522 834h1026q15 88 15 145q0 82 -21.5 151.5t-65.5 125t-118.5 87t-173.5 31.5q-225 0 -407 -151t-255 -389z" />
<glyph unicode="&#x4bf;" horiz-adv-x="1327" d="M113 700q0 108 67 232h90q-73 -114 -73 -221q0 -54 26 -78.5t78 -24.5h16q61 190 214 315.5t350 125.5q177 0 266.5 -99t89.5 -264q0 -66 -27 -160h-821q-12 -58 -12 -112q0 -155 93.5 -255t266.5 -100q183 0 342 129l33 -77q-67 -55 -169.5 -95.5t-205.5 -40.5h-24 l-41 -221h-86l43 232q-157 30 -250.5 140t-93.5 277q0 55 10 123h-4q-178 0 -178 174zM410 606h727q8 31 8 86q0 137 -73 207t-191 70q-96 0 -186.5 -40t-167 -123.5t-117.5 -199.5z" />
<glyph unicode="&#x4c0;" horiz-adv-x="524" d="M100 0l281 1434h88l-281 -1434h-88z" />
<glyph unicode="&#x4c1;" horiz-adv-x="1697" d="M-68 0l615 754v4l-307 676h100l285 -639h219l125 639h88l-125 -639h205l534 639h115l-574 -676v-4l322 -754h-100l-299 713h-220l-139 -713h-88l139 713h-206l-578 -713h-111zM823 1686q0 24 13 77h84q-11 -39 -11 -63q0 -55 38 -85t95 -30q70 0 126 43.5t67 134.5h84 q-11 -74 -40 -127.5t-69 -81t-82 -39.5t-90 -12q-87 0 -151 50.5t-64 132.5z" />
<glyph unicode="&#x4c2;" horiz-adv-x="1411" d="M-68 0l463 535v4l-231 485h92l219 -459h184l89 459h86l-89 -459h181l381 459h108l-424 -506v-4l260 -514h-100l-242 485h-180l-94 -485h-86l94 485h-182l-416 -485h-113zM614 1356q0 25 13 78h84q-11 -38 -11 -64q0 -55 38.5 -85t95.5 -30q70 0 125.5 44t66.5 135h84 q-11 -74 -40 -127.5t-69 -81t-82 -39.5t-90 -12q-87 0 -151 50t-64 132z" />
<glyph unicode="&#x4c3;" horiz-adv-x="1220" d="M102 0l279 1434h88l-125 -639q188 0 256 -4l539 643h112l-553 -662q162 -37 254 -153.5t92 -294.5q0 -98 -26.5 -195t-78.5 -182.5t-122.5 -151.5t-164 -104.5t-197.5 -38.5l16 84q102 0 193.5 50.5t154.5 132.5t100 188t37 215q0 195 -120.5 293t-331.5 98h-174 l-140 -713h-88z" />
<glyph unicode="&#x4c4;" horiz-adv-x="985" d="M61 0l199 1024h86l-88 -457q118 0 168 -4l428 461h119l-451 -475q275 -68 275 -361q0 -186 -104.5 -350t-284.5 -258l-41 76q151 70 246.5 219.5t95.5 310.5q0 301 -365 301h-102l-95 -487h-86z" />
<glyph unicode="&#x4c5;" horiz-adv-x="1376" d="M-102 -16l16 86q101 14 185 92.5t151.5 220.5t121 324.5t101.5 425.5l59 301h744l-264 -1352h182l-12 -68l-185 -301h-90l160 287h-160l264 1352h-567l-43 -217q-29 -148 -56.5 -266t-63.5 -238.5t-74.5 -211t-87.5 -172.5t-105 -135.5t-126 -87.5t-150 -40z" />
<glyph unicode="&#x4c6;" horiz-adv-x="1087" d="M-80 -8l14 80q139 26 231.5 188t151.5 459l58 305h573l-184 -946h143l-12 -68l-152 -256h-84l134 246h-129l184 944h-402l-43 -225q-72 -368 -190 -540.5t-293 -186.5z" />
<glyph unicode="&#x4c7;" horiz-adv-x="1523" d="M102 0l279 1434h88l-131 -674h909l131 674h88l-272 -1405q-14 -74 -39 -133t-52.5 -97.5t-63 -67t-66.5 -43.5t-68.5 -23.5t-62.5 -10.5t-54 -2l17 80q29 0 58.5 6t68 25t70.5 50.5t60.5 89t43.5 132.5l125 643h-909l-132 -678h-88z" />
<glyph unicode="&#x4c8;" horiz-adv-x="1200" d="M61 0l199 1024h86l-88 -457h670l88 457h88l-186 -956q-16 -87 -46.5 -159.5t-64.5 -120.5t-82.5 -90t-87 -66.5t-90.5 -51.5l-39 74q57 27 104 60.5t91.5 82t77 117.5t48.5 154l82 419h-669l-95 -487h-86z" />
<glyph unicode="&#x4c9;" horiz-adv-x="1560" d="M100 0l281 1434h88l-131 -674h909l131 674h88l-264 -1352h197l-13 -68l-184 -301h-90l160 287h-174l133 678h-909l-134 -678h-88z" />
<glyph unicode="&#x4ca;" horiz-adv-x="1228" d="M61 0l199 1024h86l-88 -457h670l88 457h86l-184 -946h157l-12 -68l-152 -256h-84l134 246h-144l94 487h-669l-95 -487h-86z" />
<glyph unicode="&#x4cb;" horiz-adv-x="1220" d="M178 872q0 57 10 103l91 459h88l-88 -445q-11 -54 -11 -104q0 -110 62 -165.5t192 -55.5q120 0 237.5 41.5t192.5 89.5l125 639h88l-280 -1434h-178l-56 -287h-86l72 369h176l107 541l16 67h-4q-214 -110 -416 -110q-169 0 -253.5 77t-84.5 215z" />
<glyph unicode="&#x4cc;" horiz-adv-x="987" d="M111 618q0 37 10 89l61 317h86l-61 -317q0 -13 -4 -37t-4 -37q0 -73 43 -116.5t151 -43.5q94 0 182.5 29.5t141.5 66.5l88 455h86l-199 -1024h-135l-49 -246h-86l63 326h136l63 321l18 70h-4q-63 -34 -152 -58t-149 -24q-148 0 -217 62.5t-69 166.5z" />
<glyph unicode="&#x4cd;" horiz-adv-x="1736" d="M45 0l397 1434h80l242 -902l39 -161h4q53 89 100 161l594 902h90l-157 -1352h190l-12 -68l-185 -301h-90l160 287h-160l127 1094q4 31 11.5 78.5t13.5 79.5l6 32h-4q-64 -120 -111 -190l-542 -818h-90l-226 818q-8 30 -18.5 78.5t-16.5 81.5l-6 34h-4q-21 -124 -39 -194 l-305 -1094h-88z" />
<glyph unicode="&#x4ce;" horiz-adv-x="1482" d="M23 0l280 1024h78l215 -678l41 -149h4q49 81 98 149l480 678h86l-109 -946h162l-12 -68l-152 -256h-84l133 246h-141l80 711l32 176h-4q-30 -58 -96 -148l-442 -626h-88l-201 622q-13 36 -22.5 74t-12.5 58l-4 20h-4q-23 -127 -37 -176l-194 -711h-86z" />
<glyph unicode="&#x4cf;" horiz-adv-x="444" d="M61 0l281 1434h88l-280 -1434h-89z" />
<glyph unicode="&#x4d0;" horiz-adv-x="1280" d="M-51 0l813 1434h92l260 -1434h-90l-88 496h-608l-281 -496h-98zM373 578h547l-103 581l-24 172h-5q-51 -111 -86 -172zM618 1686q0 24 13 77h84q-10 -35 -10 -63q0 -55 38 -85t95 -30q70 0 125.5 43.5t66.5 134.5h84q-9 -60 -30 -106.5t-48 -75t-62 -46.5t-69 -25t-71 -7 q-87 0 -151.5 50.5t-64.5 132.5z" />
<glyph unicode="&#x4d1;" horiz-adv-x="1042" d="M16 231q0 80 31 144t86.5 106t122.5 71.5t149.5 44.5t155.5 21.5t152 6.5h80q14 79 14 131q0 99 -52.5 154t-176.5 55q-78 0 -162.5 -27t-149.5 -72l-37 78q64 45 158 75t191 30q156 0 237.5 -70.5t81.5 -210.5q0 -52 -12 -117l-127 -651h-86l26 133q4 24 10.5 47.5 t10.5 35.5l4 11h-4q-20 -40 -54.5 -80.5t-83.5 -80.5t-116.5 -65.5t-140.5 -25.5q-131 0 -219.5 69t-88.5 187zM106 240q0 -78 58 -131.5t168 -53.5q78 0 152.5 40.5t130.5 105t96 142t57 155.5l10 47h-65q-607 0 -607 -305zM438 1356q0 25 13 78h84q-11 -38 -11 -64 q0 -55 38 -85t95 -30q70 0 126 44t67 135h84q-11 -74 -40 -127.5t-69 -81t-82 -39.5t-90 -12q-87 0 -151 50t-64 132z" />
<glyph unicode="&#x4d2;" horiz-adv-x="1280" d="M-51 0l813 1434h92l260 -1434h-90l-88 496h-608l-281 -496h-98zM373 578h547l-103 581l-24 172h-5q-51 -111 -86 -172zM653 1614l29 149h94l-28 -149h-95zM934 1614l29 149h94l-29 -149h-94z" />
<glyph unicode="&#x4d3;" horiz-adv-x="1042" d="M16 231q0 80 31 144t86.5 106t122.5 71.5t149.5 44.5t155.5 21.5t152 6.5h80q14 79 14 131q0 99 -52.5 154t-176.5 55q-78 0 -162.5 -27t-149.5 -72l-37 78q64 45 158 75t191 30q156 0 237.5 -70.5t81.5 -210.5q0 -52 -12 -117l-127 -651h-86l26 133q4 24 10.5 47.5 t10.5 35.5l4 11h-4q-20 -40 -54.5 -80.5t-83.5 -80.5t-116.5 -65.5t-140.5 -25.5q-131 0 -219.5 69t-88.5 187zM106 240q0 -78 58 -131.5t168 -53.5q78 0 152.5 40.5t130.5 105t96 142t57 155.5l10 47h-65q-607 0 -607 -305zM461 1284l28 150h95l-29 -150h-94zM741 1284 l29 150h94l-28 -150h-95z" />
<glyph unicode="&#x4d4;" horiz-adv-x="1687" d="M-72 0l867 1434h925l-16 -82h-696l-115 -588h571l-16 -82h-571l-117 -600h735l-16 -82h-824l133 682h-348l-411 -682h-101zM489 764h316l115 588h-74z" />
<glyph unicode="&#x4d5;" horiz-adv-x="1779" d="M18 231q0 70 22.5 127t60 96t93 68.5t114 46.5t131 27.5t135 14t135.5 3.5h82q18 103 18 144q0 103 -57 155t-183 52q-74 0 -157 -28t-144 -71l-37 78q62 45 156 75t182 30q161 0 238.5 -60.5t83.5 -161.5h4q81 110 194.5 166t241.5 56q176 0 267.5 -98.5t91.5 -266.5 q0 -29 -6 -66.5t-12 -59.5l-7 -23h-803q-14 -66 -14 -132q0 -164 92.5 -254t247.5 -90q89 0 179 35t165 94l33 -77q-68 -58 -175 -97t-198 -39q-168 0 -281 83t-141 223h-4q-9 -22 -28 -53.5t-59 -77.5t-88 -83.5t-120.5 -64.5t-151.5 -27q-130 0 -215.5 67.5t-85.5 188.5z M111 238q0 -79 57.5 -131t165.5 -52q80 0 154.5 39t129 103t93 139.5t55.5 152.5l10 46h-141q-524 0 -524 -297zM885 614h706q6 43 6 82q0 137 -75 205t-191 68q-146 0 -266 -91.5t-180 -263.5z" />
<glyph unicode="&#x4d6;" horiz-adv-x="1132" d="M100 0l281 1434h784l-18 -82h-694l-115 -588h571l-16 -82h-569l-119 -600h733l-14 -82h-824zM594 1686q0 28 12 77h84q-10 -35 -10 -63q0 -55 38 -85t95 -30q70 0 126 43.5t67 134.5h84q-11 -74 -40 -127.5t-69 -81t-82 -39.5t-90 -12q-87 0 -151 50.5t-64 132.5z" />
<glyph unicode="&#x4d7;" horiz-adv-x="1120" d="M78 403q0 122 45 239t122.5 207t190 145t238.5 55q177 0 266.5 -99t89.5 -264q0 -69 -26 -160h-822q-12 -58 -12 -112q0 -155 93.5 -255t266.5 -100q183 0 342 129l33 -77q-67 -55 -169.5 -95.5t-205.5 -40.5q-200 0 -326 116.5t-126 311.5zM203 606h727q8 31 8 86 q0 137 -73 207t-191 70q-96 0 -186.5 -40t-167 -123.5t-117.5 -199.5zM504 1356q0 29 12 78h84q-10 -35 -10 -64q0 -55 38 -85t95 -30q70 0 125.5 44t66.5 135h84q-9 -60 -30 -106.5t-48 -75t-62 -46.5t-69 -25t-71 -7q-87 0 -151 50t-64 132z" />
<glyph unicode="&#x4d8;" horiz-adv-x="1466" d="M109 461q0 129 36 299h1127q14 80 14 149q0 211 -122 338t-341 127q-78 0 -157.5 -17t-137.5 -41.5t-104.5 -49t-69.5 -41.5l-24 -17l-47 70q9 7 25.5 19.5t71.5 43.5t114.5 54.5t149.5 43t181 19.5q261 0 407 -149.5t146 -419.5q0 -104 -22.5 -210.5t-65 -208.5 t-109.5 -191.5t-150 -157.5t-193.5 -107t-233.5 -39q-105 0 -192.5 28.5t-156.5 85.5t-107.5 152.5t-38.5 219.5zM201 469q0 -199 100 -303.5t295 -104.5q253 0 427 167.5t232 449.5h-1032q-22 -107 -22 -209z" />
<glyph unicode="&#x4d9;" horiz-adv-x="1124" d="M57 338q0 71 37 192h817q7 19 7 80q0 155 -94 255t-267 100q-89 0 -178 -34.5t-160 -92.5l-37 75q68 55 172.5 95.5t206.5 40.5q199 0 324 -119.5t125 -319.5q0 -120 -45 -235t-121.5 -203.5t-188.5 -142.5t-237 -54q-179 0 -270 99.5t-91 263.5zM150 332 q0 -139 72.5 -208t191.5 -69q152 0 290 105t191 291h-729q-16 -56 -16 -119z" />
<glyph unicode="&#x4da;" horiz-adv-x="1462" d="M104 477q0 92 33 242h1131q18 73 18 151q0 98 -29.5 187t-85.5 160.5t-148.5 114t-207.5 42.5q-127 0 -257.5 -44.5t-227.5 -123.5l-47 72q96 78 239 129t299 51q249 0 402 -164t153 -424q0 -121 -34 -247.5t-101.5 -242t-158.5 -206.5t-214 -145t-258 -54 q-231 0 -368.5 130t-137.5 372zM197 477q0 -91 24 -165t73 -131t131.5 -88.5t192.5 -31.5q216 0 386 162t243 414h-1032q-18 -99 -18 -160zM731 1614l29 149h94l-29 -149h-94zM1012 1614l28 149h95l-29 -149h-94z" />
<glyph unicode="&#x4db;" horiz-adv-x="1122" d="M57 338q0 71 37 192h817q7 19 7 80q0 155 -94 255t-267 100q-89 0 -178 -34.5t-160 -92.5l-37 75q68 55 172.5 95.5t206.5 40.5q199 0 324 -119.5t125 -319.5q0 -120 -45 -235t-121.5 -203.5t-188.5 -142.5t-237 -54q-179 0 -270 99.5t-91 263.5zM150 332 q0 -139 72.5 -208t191.5 -69q152 0 290 105t191 291h-729q-16 -56 -16 -119zM489 1284l29 150h94l-28 -150h-95zM770 1284l29 150h94l-29 -150h-94z" />
<glyph unicode="&#x4dc;" horiz-adv-x="1697" d="M-68 0l615 754v4l-307 676h100l285 -639h219l125 639h88l-125 -639h205l534 639h115l-574 -676v-4l322 -754h-100l-299 713h-220l-139 -713h-88l139 713h-206l-578 -713h-111zM862 1614l29 149h94l-29 -149h-94zM1143 1614l28 149h95l-29 -149h-94z" />
<glyph unicode="&#x4dd;" horiz-adv-x="1411" d="M-68 0l463 535v4l-231 485h92l219 -459h184l89 459h86l-89 -459h181l381 459h108l-424 -506v-4l260 -514h-100l-242 485h-180l-94 -485h-86l94 485h-182l-416 -485h-113zM657 1284l29 150h94l-28 -150h-95zM938 1284l29 150h94l-29 -150h-94z" />
<glyph unicode="&#x4de;" horiz-adv-x="1073" d="M-10 156l59 61q46 -65 128 -110.5t202 -45.5q121 0 223.5 48.5t163.5 137t61 197.5q0 127 -82.5 191.5t-212.5 64.5h-182l17 82h145q95 0 184 42t148 122.5t59 179.5q0 107 -69.5 176.5t-208.5 69.5q-179 0 -334 -117l-43 70q181 133 366 133t283 -86t98 -237 q0 -143 -81.5 -242t-213.5 -141v-4q220 -67 220 -295q0 -135 -72.5 -245.5t-192.5 -171.5t-260 -61q-117 0 -227 45.5t-178 135.5zM532 1614l29 149h94l-28 -149h-95zM813 1614l29 149h94l-29 -149h-94z" />
<glyph unicode="&#x4df;" horiz-adv-x="878" d="M-25 121l60 63q37 -45 109.5 -86t164.5 -41q80 0 150.5 30t118 93.5t47.5 147.5q0 81 -61 122.5t-177 41.5h-133l14 79h121q120 0 206.5 61t86.5 177q0 79 -57 117.5t-154 38.5q-144 0 -260 -97l-47 70q144 111 321 111q129 0 209 -59.5t80 -170.5q0 -99 -55 -174.5 t-152 -105.5v-4q67 -19 108.5 -69.5t41.5 -133.5q0 -157 -116.5 -257t-281.5 -100q-114 0 -204 43.5t-140 102.5zM383 1284l29 150h94l-29 -150h-94zM664 1284l28 150h94l-28 -150h-94z" />
<glyph unicode="&#x4e0;" horiz-adv-x="1052" d="M-14 106l49 74q41 -45 128.5 -81t182.5 -36q123 0 230 49t173 141t66 206q0 125 -88.5 186.5t-290.5 61.5h-157l12 69l526 490q31 27 58 49t38 31l11 8l-2 4q-51 -4 -123 -4h-543l16 80h795l-12 -62l-568 -526q-12 -11 -29.5 -24.5t-28.5 -21.5l-11 -7v-5 q115 4 201.5 -11t140.5 -44t87.5 -72.5t46.5 -91t13 -106.5q0 -133 -73.5 -244t-201.5 -175t-282 -64q-120 0 -221.5 43.5t-142.5 82.5z" />
<glyph unicode="&#x4e1;" horiz-adv-x="952" d="M-152 -303l50 74q41 -45 128.5 -81t182.5 -36q123 0 230 48.5t173 140.5t66 206q0 125 -88.5 186.5t-290.5 61.5h-158l13 70l526 489l106 88l-2 4q-50 -4 -122 -4h-543l16 80h795l-12 -61l-568 -527q-12 -11 -29.5 -24.5t-28.5 -21.5l-11 -7v-4q114 4 201 -11.5t141 -44 t87.5 -72.5t46.5 -91.5t13 -106.5q0 -133 -73.5 -244t-201.5 -175t-282 -64q-120 0 -222 44t-143 83z" />
<glyph unicode="&#x4e2;" horiz-adv-x="1533" d="M100 0l281 1434h88l-217 -1117q-6 -32 -17 -76t-19 -72l-7 -28h4q101 121 160 187l1024 1106h82l-281 -1434h-88l217 1116q6 32 17 76l18 72l8 28h-4q-95 -114 -154 -180l-1030 -1112h-82zM723 1612l14 82h490l-15 -82h-489z" />
<glyph unicode="&#x4e3;" horiz-adv-x="1196" d="M61 0l199 1024h86l-141 -729l-37 -160h4q88 107 147 168l701 721h80l-199 -1024h-86l141 731l35 154h-4q-86 -101 -145 -162l-701 -723h-80zM492 1280l14 82h489l-14 -82h-489z" />
<glyph unicode="&#x4e4;" horiz-adv-x="1533" d="M100 0l281 1434h88l-217 -1117q-6 -32 -17 -76t-19 -72l-7 -28h4q101 121 160 187l1024 1106h82l-281 -1434h-88l217 1116q6 32 17 76l18 72l8 28h-4q-95 -114 -154 -180l-1030 -1112h-82zM776 1614l29 149h94l-29 -149h-94zM1057 1614l28 149h95l-29 -149h-94z" />
<glyph unicode="&#x4e5;" horiz-adv-x="1196" d="M61 0l199 1024h86l-141 -729l-37 -160h4q88 107 147 168l701 721h80l-199 -1024h-86l141 731l35 154h-4q-86 -101 -145 -162l-701 -723h-80zM555 1284l29 150h94l-29 -150h-94zM836 1284l28 150h94l-28 -150h-94z" />
<glyph unicode="&#x4e6;" horiz-adv-x="1691" d="M131 590q0 172 74.5 333.5t194.5 278t278 186.5t319 70q270 0 440.5 -168t170.5 -430q0 -175 -75 -339.5t-195.5 -283.5t-278.5 -190.5t-318 -71.5q-270 0 -440 172.5t-170 442.5zM223 590q0 -233 144.5 -382t373.5 -149q142 0 283 64.5t249 171t175.5 255.5t67.5 308 q0 226 -145 371t-374 145q-145 0 -286 -63t-248 -167.5t-173.5 -250.5t-66.5 -303zM852 1614l29 149h94l-29 -149h-94zM1133 1614l28 149h94l-28 -149h-94z" />
<glyph unicode="&#x4e7;" horiz-adv-x="1269" d="M78 420q0 127 53.5 244.5t140 201t201 133.5t232.5 50q201 0 326.5 -123.5t125.5 -315.5q0 -128 -54 -247t-141 -203t-201 -134.5t-231 -50.5q-201 0 -326.5 125t-125.5 320zM168 422q0 -159 101 -261t261 -102q99 0 196 43.5t172.5 116.5t122 176t46.5 213 q0 156 -101 256.5t-261 100.5q-136 0 -259.5 -72.5t-200.5 -199t-77 -271.5zM580 1284l28 150h94l-28 -150h-94zM860 1284l29 150h94l-29 -150h-94z" />
<glyph unicode="&#x4e8;" horiz-adv-x="1691" d="M131 590q0 172 74.5 333.5t194.5 278t278 186.5t319 70q270 0 440.5 -168t170.5 -430q0 -175 -75 -339.5t-195.5 -283.5t-278.5 -190.5t-318 -71.5q-270 0 -440 172.5t-170 442.5zM223 590q0 -233 144.5 -382t373.5 -149q164 0 322 81.5t274 226t158 319.5h-1266 q-6 -50 -6 -96zM246 768h1263q7 51 7 90q0 226 -145 371t-374 145q-166 0 -323 -79t-271.5 -218.5t-156.5 -308.5z" />
<glyph unicode="&#x4e9;" horiz-adv-x="1269" d="M78 420q0 127 53.5 244.5t140 201t201 133.5t232.5 50q201 0 326.5 -123.5t125.5 -315.5q0 -128 -54 -247t-141 -203t-201 -134.5t-231 -50.5q-201 0 -326.5 125t-125.5 320zM168 422q0 -159 101 -261t261 -102q171 0 321.5 120t197.5 298h-879q-2 -18 -2 -55zM184 557 h879q4 32 4 51q0 156 -101 256.5t-261 100.5q-174 0 -324 -117t-197 -291z" />
<glyph unicode="&#x4ea;" horiz-adv-x="1691" d="M131 590q0 172 74.5 333.5t194.5 278t278 186.5t319 70q270 0 440.5 -168t170.5 -430q0 -175 -75 -339.5t-195.5 -283.5t-278.5 -190.5t-318 -71.5q-270 0 -440 172.5t-170 442.5zM223 590q0 -233 144.5 -382t373.5 -149q164 0 322 81.5t274 226t158 319.5h-1266 q-6 -50 -6 -96zM246 768h1263q7 51 7 90q0 226 -145 371t-374 145q-166 0 -323 -79t-271.5 -218.5t-156.5 -308.5zM854 1614l29 149h94l-29 -149h-94zM1135 1614l28 149h94l-28 -149h-94z" />
<glyph unicode="&#x4eb;" horiz-adv-x="1269" d="M78 420q0 127 53.5 244.5t140 201t201 133.5t232.5 50q201 0 326.5 -123.5t125.5 -315.5q0 -128 -54 -247t-141 -203t-201 -134.5t-231 -50.5q-201 0 -326.5 125t-125.5 320zM168 422q0 -159 101 -261t261 -102q171 0 321.5 120t197.5 298h-879q-2 -18 -2 -55zM184 557 h879q4 32 4 51q0 156 -101 256.5t-261 100.5q-174 0 -324 -117t-197 -291zM580 1284l28 150h94l-28 -150h-94zM860 1284l29 150h94l-29 -150h-94z" />
<glyph unicode="&#x4ec;" horiz-adv-x="1464" d="M4 193l62 59q67 -86 189.5 -139.5t260.5 -53.5q165 0 321.5 81.5t269.5 223.5t155 314h-863l17 82h860q8 66 8 100q0 106 -33 199t-95.5 163.5t-160 111t-217.5 40.5q-127 0 -254 -42.5t-227 -119.5l-51 66q98 82 241.5 131t298.5 49q265 0 429.5 -166.5t164.5 -429.5 q0 -173 -72 -336.5t-191 -284t-279 -193.5t-328 -73q-146 0 -286 55t-220 163zM674 1614l28 149h95l-29 -149h-94zM954 1614l29 149h94l-28 -149h-95z" />
<glyph unicode="&#x4ed;" horiz-adv-x="1099" d="M-6 135l49 70q48 -67 132.5 -106.5t184.5 -39.5q181 0 324 117.5t190 294.5h-561l15 80h563q4 40 4 65q0 162 -102.5 255.5t-257.5 93.5q-184 0 -332 -129l-51 65q71 67 176.5 107.5t212.5 40.5q195 0 320.5 -121.5t125.5 -321.5q0 -118 -48.5 -232t-130.5 -202.5 t-201.5 -142.5t-252.5 -54q-107 0 -204 41t-156 119zM457 1284l28 150h95l-29 -150h-94zM737 1284l29 150h94l-29 -150h-94z" />
<glyph unicode="&#x4ee;" horiz-adv-x="1183" d="M72 61l53 68q84 -72 158 -72q30 0 57.5 12t47.5 27.5t46 50t42 60t46 76.5l-348 1151h92l264 -873q11 -36 23 -83t19 -76l6 -29h4q59 106 106 188l498 873h102l-723 -1241q-128 -218 -289 -218q-96 0 -204 86zM537 1614l14 82h489l-14 -82h-489z" />
<glyph unicode="&#x4ef;" horiz-adv-x="1060" d="M-143 -373l49 68q43 -43 119 -43q72 0 128.5 49t108.5 133l109 174l-230 1016h90l179 -831l18 -97h2q26 48 55 97l500 831h98l-776 -1270q-114 -184 -282 -184q-96 0 -168 57zM424 1280l14 82h490l-15 -82h-489z" />
<glyph unicode="&#x4f0;" horiz-adv-x="1183" d="M72 61l53 68q84 -72 158 -72q30 0 57.5 12t47.5 27.5t46 50t42 60t46 76.5l-348 1151h92l264 -873q11 -36 23 -83t19 -76l6 -29h4q59 106 106 188l498 873h102l-723 -1241q-128 -218 -289 -218q-96 0 -204 86zM588 1614l28 149h95l-29 -149h-94zM868 1614l29 149h94 l-28 -149h-95z" />
<glyph unicode="&#x4f1;" horiz-adv-x="1060" d="M-143 -373l49 68q43 -43 119 -43q72 0 128.5 49t108.5 133l109 174l-230 1016h90l179 -831l18 -97h2q26 48 55 97l500 831h98l-776 -1270q-114 -184 -282 -184q-96 0 -168 57zM473 1284l29 150h94l-29 -150h-94zM754 1284l28 150h95l-29 -150h-94z" />
<glyph unicode="&#x4f2;" horiz-adv-x="1183" d="M72 61l53 68q84 -72 158 -72q30 0 57.5 12t47.5 27.5t46 50t42 60t46 76.5l-348 1151h92l264 -873q11 -36 23 -83t19 -76l6 -29h4q59 106 106 188l498 873h102l-723 -1241q-128 -218 -289 -218q-96 0 -204 86zM588 1536l172 227h110l-178 -227h-104zM823 1536l183 227 h122l-206 -227h-99z" />
<glyph unicode="&#x4f3;" horiz-adv-x="1060" d="M-143 -373l49 68q43 -43 119 -43q72 0 128.5 49t108.5 133l109 174l-230 1016h90l179 -831l18 -97h2q26 48 55 97l500 831h98l-776 -1270q-114 -184 -282 -184q-96 0 -168 57zM459 1206l172 228h110l-178 -228h-104zM694 1206l183 228h122l-206 -228h-99z" />
<glyph unicode="&#x4f4;" horiz-adv-x="1220" d="M178 872q0 57 10 103l91 459h88l-88 -445q-11 -54 -11 -104q0 -110 62 -165.5t192 -55.5q120 0 237.5 41.5t192.5 89.5l125 639h88l-280 -1434h-88l123 623l16 67h-4q-214 -110 -416 -110q-169 0 -253.5 77t-84.5 215zM584 1614l28 149h95l-29 -149h-94zM864 1614l29 149 h94l-29 -149h-94z" />
<glyph unicode="&#x4f5;" horiz-adv-x="987" d="M111 618q0 37 10 89l61 317h86l-61 -317q-8 -50 -8 -74q0 -73 43 -116.5t151 -43.5q94 0 182.5 29.5t141.5 66.5l88 455h86l-199 -1024h-86l78 401l18 70h-4q-63 -34 -152 -58t-149 -24q-148 0 -217 62.5t-69 166.5zM416 1284l28 150h95l-29 -150h-94zM696 1284l29 150 h94l-28 -150h-95z" />
<glyph unicode="&#x4f6;" horiz-adv-x="983" d="M102 0l279 1434h723l-17 -82h-634l-246 -1270h176l-72 -369h-86l56 287h-179z" />
<glyph unicode="&#x4f7;" horiz-adv-x="817" d="M61 0l199 1024h582l-17 -78h-495l-168 -866h153l-63 -326h-86l49 246h-154z" />
<glyph unicode="&#x4f8;" horiz-adv-x="1605" d="M100 0l281 1434h88l-121 -615h338q161 0 257.5 -82.5t96.5 -242.5q0 -145 -68.5 -260t-177 -174.5t-233.5 -59.5h-461zM205 82h354q163 0 276 110.5t113 296.5q0 117 -72 182.5t-192 65.5h-352zM813 1614l29 149h94l-29 -149h-94zM1094 1614l28 149h95l-29 -149h-94z M1182 0l280 1434h88l-280 -1434h-88z" />
<glyph unicode="&#x4f9;" horiz-adv-x="1298" d="M61 0l199 1024h86l-80 -410h223q60 0 110.5 -11t97 -37.5t73.5 -78.5t27 -125q0 -157 -111 -259.5t-295 -102.5h-330zM162 80h231q137 0 224.5 75t87.5 199q0 89 -51.5 135t-166.5 46h-235zM592 1284l29 150h94l-29 -150h-94zM872 1284l29 150h94l-28 -150h-95zM918 0 l198 1024h86l-198 -1024h-86z" />
<glyph unicode="&#x2000;" horiz-adv-x="895" />
<glyph unicode="&#x2001;" horiz-adv-x="1790" />
<glyph unicode="&#x2002;" horiz-adv-x="895" />
<glyph unicode="&#x2003;" horiz-adv-x="1790" />
<glyph unicode="&#x2004;" horiz-adv-x="596" />
<glyph unicode="&#x2005;" horiz-adv-x="447" />
<glyph unicode="&#x2006;" horiz-adv-x="298" />
<glyph unicode="&#x2007;" horiz-adv-x="298" />
<glyph unicode="&#x2008;" horiz-adv-x="223" />
<glyph unicode="&#x2009;" horiz-adv-x="358" />
<glyph unicode="&#x200a;" horiz-adv-x="99" />
<glyph unicode="&#x2010;" horiz-adv-x="884" d="M147 539l15 82h565l-14 -82h-566z" />
<glyph unicode="&#x2011;" horiz-adv-x="884" d="M147 539l15 82h565l-14 -82h-566z" />
<glyph unicode="&#x2012;" horiz-adv-x="884" d="M147 539l15 82h565l-14 -82h-566z" />
<glyph unicode="&#x2013;" horiz-adv-x="1294" d="M147 539l15 82h975l-15 -82h-975z" />
<glyph unicode="&#x2014;" horiz-adv-x="1703" d="M147 539l15 82h1384l-14 -82h-1385z" />
<glyph unicode="&#x2018;" horiz-adv-x="471" d="M256 1141l158 309h84l-131 -309h-111z" />
<glyph unicode="&#x2019;" horiz-adv-x="464" d="M260 1141l131 309h111l-158 -309h-84z" />
<glyph unicode="&#x201a;" horiz-adv-x="505" d="M-10 -184l131 309h110l-157 -309h-84z" />
<glyph unicode="&#x201c;" horiz-adv-x="675" d="M256 1141l158 309h84l-131 -309h-111zM461 1141l157 309h84l-131 -309h-110z" />
<glyph unicode="&#x201d;" horiz-adv-x="669" d="M260 1141l131 309h111l-158 -309h-84zM465 1141l131 309h111l-158 -309h-84z" />
<glyph unicode="&#x201e;" horiz-adv-x="710" d="M-10 -184l131 309h110l-157 -309h-84zM195 -184l131 309h110l-157 -309h-84z" />
<glyph unicode="&#x2026;" horiz-adv-x="1318" d="M45 0l27 129h125l-27 -129h-125zM481 0l27 129h125l-27 -129h-125zM918 0l26 129h125l-27 -129h-124z" />
<glyph unicode="&#x202f;" horiz-adv-x="358" />
<glyph unicode="&#x2039;" horiz-adv-x="669" d="M104 584l394 415h116l-407 -426l258 -415h-98z" />
<glyph unicode="&#x203a;" horiz-adv-x="665" d="M43 158l408 426l-258 415h98l262 -426l-393 -415h-117z" />
<glyph unicode="&#x205f;" horiz-adv-x="447" />
<glyph unicode="&#x20ac;" d="M45 559l14 82h113q6 86 35 182h-111l15 82h125q102 245 317.5 399t462.5 154q98 0 192 -24l-37 -82q-68 20 -157 20q-213 0 -400 -129.5t-282 -337.5h672l-31 -82h-672q-30 -89 -39 -182h641l-29 -82h-614q2 -104 34.5 -193t93 -157.5t155.5 -108t215 -39.5q109 0 186 27 l8 -86q-88 -27 -196 -27q-262 0 -424 162.5t-164 421.5h-123z" />
<glyph unicode="&#x2122;" horiz-adv-x="2103" d="M276 1356v78h738v-78h-330v-815h-80v815h-328zM1098 541l71 893h72l258 -553q8 -18 15.5 -38.5t10.5 -32.5l3 -11h4q11 41 29 82l258 553h71l72 -893h-78l-57 671l2 58h-4l-260 -561h-70l-260 561h-4l2 -58l-57 -671h-78z" />
<glyph unicode="&#x25fc;" horiz-adv-x="1024" d="M0 0v1024h1024v-1024h-1024z" />
</font>
</defs>
</svg>
